<svg width="20" height="20" viewBox="0 0 20 20" fill="none" xmlns="http://www.w3.org/2000/svg">
<path d="M6.987 2.06617L6.27 2.28217C5.63158 2.4747 5.06144 2.8456 4.62669 3.35121C4.19194 3.85682 3.91068 4.47611 3.816 5.13617C3.519 7.20417 4.183 9.62217 5.784 12.3952C7.381 15.1612 9.139 16.9432 11.074 17.7232C11.6957 17.9737 12.3763 18.0405 13.0349 17.9155C13.6935 17.7906 14.3023 17.4791 14.789 17.0182L15.331 16.5042C15.6829 16.1711 15.902 15.7215 15.9474 15.2391C15.9929 14.7566 15.8616 14.2741 15.578 13.8812L14.222 12.0012C14.0387 11.7474 13.7805 11.5573 13.4837 11.4576C13.1869 11.3579 12.8664 11.3535 12.567 11.4452L10.516 12.0722L10.463 12.0822C10.237 12.1152 9.715 11.6262 9.065 10.5002C8.385 9.32217 8.245 8.63317 8.432 8.45517L9.475 7.48217C9.85641 7.12663 10.117 6.66061 10.2201 6.14949C10.3232 5.63836 10.2637 5.10778 10.05 4.63217L9.388 3.16117C9.18894 2.71851 8.8357 2.36335 8.39413 2.16188C7.95256 1.96042 7.4518 1.9264 6.987 2.06617ZM8.477 3.57117L9.137 5.04217C9.26554 5.3274 9.30148 5.64574 9.23978 5.95245C9.17808 6.25916 9.02183 6.53883 8.793 6.75217L7.747 7.72617C7.078 8.36017 7.3 9.44217 8.2 11.0002C9.046 12.4662 9.818 13.1902 10.648 13.0642L10.772 13.0382L12.86 12.4012C12.9598 12.3705 13.0667 12.3719 13.1657 12.405C13.2647 12.4382 13.3508 12.5016 13.412 12.5862L14.768 14.4662C14.91 14.6626 14.9758 14.904 14.9532 15.1453C14.9305 15.3866 14.821 15.6115 14.645 15.7782L14.102 16.2922C13.7543 16.6212 13.3195 16.8435 12.8493 16.9327C12.379 17.0218 11.893 16.9741 11.449 16.7952C9.751 16.1112 8.146 14.4842 6.651 11.8952C5.152 9.30017 4.545 7.09317 4.806 5.27817C4.87356 4.8066 5.07445 4.36415 5.38502 4.00292C5.69559 3.64168 6.1029 3.3767 6.559 3.23917L7.276 3.02317C7.50846 2.95332 7.75839 2.9704 7.97918 3.07123C8.19997 3.17206 8.37656 3.34975 8.476 3.57117H8.477Z" fill="#99B81B"/>
</svg>
