<svg width="20" height="20" viewBox="0 0 20 20" fill="none" xmlns="http://www.w3.org/2000/svg">
<path d="M2.50016 4.16667V3.75C2.38966 3.75 2.28368 3.7939 2.20554 3.87204C2.12739 3.95018 2.0835 4.05616 2.0835 4.16667H2.50016ZM17.5002 4.16667H17.9168C17.9168 4.05616 17.8729 3.95018 17.7948 3.87204C17.7167 3.7939 17.6107 3.75 17.5002 3.75V4.16667ZM2.50016 4.58333H17.5002V3.75H2.50016V4.58333ZM17.0835 4.16667V14.1667H17.9168V4.16667H17.0835ZM15.8335 15.4167H4.16683V16.25H15.8335V15.4167ZM2.91683 14.1667V4.16667H2.0835V14.1667H2.91683ZM4.16683 15.4167C3.83531 15.4167 3.51737 15.285 3.28295 15.0505C3.04853 14.8161 2.91683 14.4982 2.91683 14.1667H2.0835C2.0835 14.7192 2.30299 15.2491 2.69369 15.6398C3.08439 16.0305 3.6143 16.25 4.16683 16.25V15.4167ZM17.0835 14.1667C17.0835 14.4982 16.9518 14.8161 16.7174 15.0505C16.483 15.285 16.165 15.4167 15.8335 15.4167V16.25C16.386 16.25 16.9159 16.0305 17.3066 15.6398C17.6973 15.2491 17.9168 14.7192 17.9168 14.1667H17.0835Z" fill="#99B81B"/>
<path d="M2.5 4.16699L10 11.667L17.5 4.16699" stroke="#99B81B" stroke-linecap="round" stroke-linejoin="round"/>
</svg>
