<svg width="1366" height="38" viewBox="0 0 1366 38" fill="none" xmlns="http://www.w3.org/2000/svg">
<mask id="path-1-outside-1_128_513" maskUnits="userSpaceOnUse" x="-16" y="-0.600098" width="1695" height="39" fill="black">
<rect fill="white" x="-16" y="-0.600098" width="1695" height="39"/>
<path d="M11.3178 36.3999L8.76777 29.1999H-3.73223L-6.28223 36.3999H-14.4822L-1.23223 1.3999H6.21777L19.4678 36.3999H11.3178ZM-1.33223 22.5999H6.36777L2.51777 11.7499L-1.33223 22.5999ZM25.7975 36.3999V1.3999H37.7475C47.3475 1.3999 55.8975 6.8999 55.8975 18.8999C55.8975 30.8999 47.3475 36.3999 37.7475 36.3999H25.7975ZM33.5475 29.5999H36.8975C42.5475 29.5999 47.9475 26.9999 47.9475 18.8999C47.9475 10.7999 42.5475 8.1499 36.8975 8.1499H33.5475V29.5999ZM80.4107 36.7999C70.0107 36.7999 62.4107 29.1999 62.4107 18.8999C62.4107 8.5999 70.0107 0.999902 80.4107 0.999902C90.7107 0.999902 98.3107 8.5999 98.3107 18.8999C98.3107 29.1999 90.7107 36.7999 80.4107 36.7999ZM80.3607 29.9999C86.2107 29.9999 90.4107 25.2999 90.4107 18.8999C90.4107 12.4999 86.2107 7.7499 80.3607 7.7499C74.4607 7.7499 70.3107 12.4999 70.3107 18.8999C70.3107 25.2999 74.4607 29.9999 80.3607 29.9999ZM106.371 36.3999V1.3999H120.871C128.121 1.3999 132.771 5.6999 132.771 12.3499C132.771 18.9999 128.121 23.2999 120.871 23.2999H114.271V36.3999H106.371ZM114.271 16.5499H120.071C123.071 16.5499 124.871 14.9499 124.871 12.3499C124.871 9.7499 123.071 8.1499 120.071 8.1499H114.271V16.5499ZM147.89 36.3999V8.1499H137.59V1.3999H166.04V8.1499H155.79V36.3999H147.89ZM574.272 36.3999V1.3999H586.222C595.822 1.3999 604.372 6.8999 604.372 18.8999C604.372 30.8999 595.822 36.3999 586.222 36.3999H574.272ZM582.022 29.5999H585.372C591.022 29.5999 596.422 26.9999 596.422 18.8999C596.422 10.7999 591.022 8.1499 585.372 8.1499H582.022V29.5999ZM612.385 36.3999V1.3999H636.435V8.1499H620.285V14.5499H633.085V21.3499H620.285V29.5999H636.985V36.3999H612.385ZM644.981 36.3999V1.3999H652.881V29.5999H668.581V36.3999H644.981ZM675.526 36.3999V1.3999H683.426V36.3999H675.526ZM702.685 36.3999L690.135 1.3999H698.185L706.435 26.8999L714.735 1.3999H722.785L710.235 36.3999H702.685ZM729.438 36.3999V1.3999H753.488V8.1499H737.338V14.5499H750.138V21.3499H737.338V29.5999H754.038V36.3999H729.438ZM791.284 36.3999H782.034L774.434 22.6999H770.034V36.3999H762.134L762.034 1.3999H775.984C782.884 1.3999 787.384 5.5999 787.384 12.0499C787.384 15.8499 785.534 19.1999 782.334 21.0499L791.284 36.3999ZM770.034 8.1499V15.9499H774.634C777.734 15.9499 779.484 14.4999 779.484 12.0499C779.484 9.5999 777.734 8.1499 774.634 8.1499H770.034ZM1135.13 36.3999V1.3999H1142.98L1156.58 23.8999V1.3999H1163.93V36.3999H1156.08L1142.48 13.8999V36.3999H1135.13ZM1187.53 36.7999C1179.23 36.7999 1173.48 32.3499 1173.48 23.3999V1.3999H1180.83V23.3499C1180.83 27.8999 1183.63 29.9499 1187.53 29.9499C1191.43 29.9499 1194.23 27.8999 1194.23 23.3499V1.3999H1201.58V23.3999C1201.58 32.3499 1195.83 36.7999 1187.53 36.7999ZM1240.41 36.3999H1231.16L1223.56 22.6999H1219.16V36.3999H1211.26L1211.16 1.3999H1225.11C1232.01 1.3999 1236.51 5.5999 1236.51 12.0499C1236.51 15.8499 1234.66 19.1999 1231.46 21.0499L1240.41 36.3999ZM1219.16 8.1499V15.9499H1223.76C1226.86 15.9499 1228.61 14.4999 1228.61 12.0499C1228.61 9.5999 1226.86 8.1499 1223.76 8.1499H1219.16ZM1252.43 36.3999V8.1499H1242.13V1.3999H1270.58V8.1499H1260.33V36.3999H1252.43ZM1291.72 36.7999C1283.42 36.7999 1277.67 32.3499 1277.67 23.3999V1.3999H1285.02V23.3499C1285.02 27.8999 1287.82 29.9499 1291.72 29.9499C1295.62 29.9499 1298.42 27.8999 1298.42 23.3499V1.3999H1305.77V23.3999C1305.77 32.3499 1300.02 36.7999 1291.72 36.7999ZM1344.59 36.3999H1335.34L1327.74 22.6999H1323.34V36.3999H1315.44L1315.34 1.3999H1329.29C1336.19 1.3999 1340.69 5.5999 1340.69 12.0499C1340.69 15.8499 1338.84 19.1999 1335.64 21.0499L1344.59 36.3999ZM1323.34 8.1499V15.9499H1327.94C1331.04 15.9499 1332.79 14.4999 1332.79 12.0499C1332.79 9.5999 1331.04 8.1499 1327.94 8.1499H1323.34ZM1351.55 36.3999V1.3999H1375.6V8.1499H1359.45V14.5499H1372.25V21.3499H1359.45V29.5999H1376.15V36.3999H1351.55ZM1460.21 36.3999V1.3999H1472.16C1481.76 1.3999 1490.31 6.8999 1490.31 18.8999C1490.31 30.8999 1481.76 36.3999 1472.16 36.3999H1460.21ZM1467.96 29.5999H1471.31C1476.96 29.5999 1482.36 26.9999 1482.36 18.8999C1482.36 10.7999 1476.96 8.1499 1471.31 8.1499H1467.96V29.5999ZM1498.32 36.3999V1.3999H1522.37V8.1499H1506.22V14.5499H1519.02V21.3499H1506.22V29.5999H1522.92V36.3999H1498.32ZM1530.92 36.3999V1.3999H1538.82V29.5999H1554.52V36.3999H1530.92ZM1561.47 36.3999V1.3999H1569.37V36.3999H1561.47ZM1588.62 36.3999L1576.07 1.3999H1584.12L1592.37 26.8999L1600.67 1.3999H1608.72L1596.17 36.3999H1588.62ZM1615.38 36.3999V1.3999H1639.43V8.1499H1623.28V14.5499H1636.08V21.3499H1623.28V29.5999H1639.98V36.3999H1615.38ZM1677.22 36.3999H1667.97L1660.37 22.6999H1655.97V36.3999H1648.07L1647.97 1.3999H1661.92C1668.82 1.3999 1673.32 5.5999 1673.32 12.0499C1673.32 15.8499 1671.47 19.1999 1668.27 21.0499L1677.22 36.3999ZM1655.97 8.1499V15.9499H1660.57C1663.67 15.9499 1665.42 14.4999 1665.42 12.0499C1665.42 9.5999 1663.67 8.1499 1660.57 8.1499H1655.97Z"/>
<path d="M249.188 36.3999V1.3999H257.038L270.638 23.8999V1.3999H277.988V36.3999H270.138L256.538 13.8999V36.3999H249.188ZM301.596 36.7999C293.296 36.7999 287.546 32.3499 287.546 23.3999V1.3999H294.896V23.3499C294.896 27.8999 297.696 29.9499 301.596 29.9499C305.496 29.9499 308.296 27.8999 308.296 23.3499V1.3999H315.646V23.3999C315.646 32.3499 309.896 36.7999 301.596 36.7999ZM354.469 36.3999H345.219L337.619 22.6999H333.219V36.3999H325.319L325.219 1.3999H339.169C346.069 1.3999 350.569 5.5999 350.569 12.0499C350.569 15.8499 348.719 19.1999 345.519 21.0499L354.469 36.3999ZM333.219 8.1499V15.9499H337.819C340.919 15.9499 342.669 14.4999 342.669 12.0499C342.669 9.5999 340.919 8.1499 337.819 8.1499H333.219ZM366.495 36.3999V8.1499H356.195V1.3999H384.645V8.1499H374.395V36.3999H366.495ZM405.779 36.7999C397.479 36.7999 391.729 32.3499 391.729 23.3999V1.3999H399.079V23.3499C399.079 27.8999 401.879 29.9499 405.779 29.9499C409.679 29.9499 412.479 27.8999 412.479 23.3499V1.3999H419.829V23.3999C419.829 32.3499 414.079 36.7999 405.779 36.7999ZM458.653 36.3999H449.403L441.803 22.6999H437.403V36.3999H429.503L429.403 1.3999H443.353C450.253 1.3999 454.753 5.5999 454.753 12.0499C454.753 15.8499 452.903 19.1999 449.703 21.0499L458.653 36.3999ZM437.403 8.1499V15.9499H442.003C445.103 15.9499 446.853 14.4999 446.853 12.0499C446.853 9.5999 445.103 8.1499 442.003 8.1499H437.403ZM465.612 36.3999V1.3999H489.662V8.1499H473.512V14.5499H486.312V21.3499H473.512V29.5999H490.212V36.3999H465.612ZM897.257 36.3999L894.707 29.1999H882.207L879.657 36.3999H871.457L884.707 1.3999H892.157L905.407 36.3999H897.257ZM884.607 22.5999H892.307L888.457 11.7499L884.607 22.5999ZM911.737 36.3999V1.3999H923.687C933.287 1.3999 941.837 6.8999 941.837 18.8999C941.837 30.8999 933.287 36.3999 923.687 36.3999H911.737ZM919.487 29.5999H922.837C928.487 29.5999 933.887 26.9999 933.887 18.8999C933.887 10.7999 928.487 8.1499 922.837 8.1499H919.487V29.5999ZM966.35 36.7999C955.95 36.7999 948.35 29.1999 948.35 18.8999C948.35 8.5999 955.95 0.999902 966.35 0.999902C976.65 0.999902 984.25 8.5999 984.25 18.8999C984.25 29.1999 976.65 36.7999 966.35 36.7999ZM966.3 29.9999C972.15 29.9999 976.35 25.2999 976.35 18.8999C976.35 12.4999 972.15 7.7499 966.3 7.7499C960.4 7.7499 956.25 12.4999 956.25 18.8999C956.25 25.2999 960.4 29.9999 966.3 29.9999ZM992.31 36.3999V1.3999H1006.81C1014.06 1.3999 1018.71 5.6999 1018.71 12.3499C1018.71 18.9999 1014.06 23.2999 1006.81 23.2999H1000.21V36.3999H992.31ZM1000.21 16.5499H1006.01C1009.01 16.5499 1010.81 14.9499 1010.81 12.3499C1010.81 9.7499 1009.01 8.1499 1006.01 8.1499H1000.21V16.5499ZM1033.83 36.3999V8.1499H1023.53V1.3999H1051.98V8.1499H1041.73V36.3999H1033.83Z"/>
</mask>
<path d="M11.3178 36.3999L8.76777 29.1999H-3.73223L-6.28223 36.3999H-14.4822L-1.23223 1.3999H6.21777L19.4678 36.3999H11.3178ZM-1.33223 22.5999H6.36777L2.51777 11.7499L-1.33223 22.5999ZM25.7975 36.3999V1.3999H37.7475C47.3475 1.3999 55.8975 6.8999 55.8975 18.8999C55.8975 30.8999 47.3475 36.3999 37.7475 36.3999H25.7975ZM33.5475 29.5999H36.8975C42.5475 29.5999 47.9475 26.9999 47.9475 18.8999C47.9475 10.7999 42.5475 8.1499 36.8975 8.1499H33.5475V29.5999ZM80.4107 36.7999C70.0107 36.7999 62.4107 29.1999 62.4107 18.8999C62.4107 8.5999 70.0107 0.999902 80.4107 0.999902C90.7107 0.999902 98.3107 8.5999 98.3107 18.8999C98.3107 29.1999 90.7107 36.7999 80.4107 36.7999ZM80.3607 29.9999C86.2107 29.9999 90.4107 25.2999 90.4107 18.8999C90.4107 12.4999 86.2107 7.7499 80.3607 7.7499C74.4607 7.7499 70.3107 12.4999 70.3107 18.8999C70.3107 25.2999 74.4607 29.9999 80.3607 29.9999ZM106.371 36.3999V1.3999H120.871C128.121 1.3999 132.771 5.6999 132.771 12.3499C132.771 18.9999 128.121 23.2999 120.871 23.2999H114.271V36.3999H106.371ZM114.271 16.5499H120.071C123.071 16.5499 124.871 14.9499 124.871 12.3499C124.871 9.7499 123.071 8.1499 120.071 8.1499H114.271V16.5499ZM147.89 36.3999V8.1499H137.59V1.3999H166.04V8.1499H155.79V36.3999H147.89ZM574.272 36.3999V1.3999H586.222C595.822 1.3999 604.372 6.8999 604.372 18.8999C604.372 30.8999 595.822 36.3999 586.222 36.3999H574.272ZM582.022 29.5999H585.372C591.022 29.5999 596.422 26.9999 596.422 18.8999C596.422 10.7999 591.022 8.1499 585.372 8.1499H582.022V29.5999ZM612.385 36.3999V1.3999H636.435V8.1499H620.285V14.5499H633.085V21.3499H620.285V29.5999H636.985V36.3999H612.385ZM644.981 36.3999V1.3999H652.881V29.5999H668.581V36.3999H644.981ZM675.526 36.3999V1.3999H683.426V36.3999H675.526ZM702.685 36.3999L690.135 1.3999H698.185L706.435 26.8999L714.735 1.3999H722.785L710.235 36.3999H702.685ZM729.438 36.3999V1.3999H753.488V8.1499H737.338V14.5499H750.138V21.3499H737.338V29.5999H754.038V36.3999H729.438ZM791.284 36.3999H782.034L774.434 22.6999H770.034V36.3999H762.134L762.034 1.3999H775.984C782.884 1.3999 787.384 5.5999 787.384 12.0499C787.384 15.8499 785.534 19.1999 782.334 21.0499L791.284 36.3999ZM770.034 8.1499V15.9499H774.634C777.734 15.9499 779.484 14.4999 779.484 12.0499C779.484 9.5999 777.734 8.1499 774.634 8.1499H770.034ZM1135.13 36.3999V1.3999H1142.98L1156.58 23.8999V1.3999H1163.93V36.3999H1156.08L1142.48 13.8999V36.3999H1135.13ZM1187.53 36.7999C1179.23 36.7999 1173.48 32.3499 1173.48 23.3999V1.3999H1180.83V23.3499C1180.83 27.8999 1183.63 29.9499 1187.53 29.9499C1191.43 29.9499 1194.23 27.8999 1194.23 23.3499V1.3999H1201.58V23.3999C1201.58 32.3499 1195.83 36.7999 1187.53 36.7999ZM1240.41 36.3999H1231.16L1223.56 22.6999H1219.16V36.3999H1211.26L1211.16 1.3999H1225.11C1232.01 1.3999 1236.51 5.5999 1236.51 12.0499C1236.51 15.8499 1234.66 19.1999 1231.46 21.0499L1240.41 36.3999ZM1219.16 8.1499V15.9499H1223.76C1226.86 15.9499 1228.61 14.4999 1228.61 12.0499C1228.61 9.5999 1226.86 8.1499 1223.76 8.1499H1219.16ZM1252.43 36.3999V8.1499H1242.13V1.3999H1270.58V8.1499H1260.33V36.3999H1252.43ZM1291.72 36.7999C1283.42 36.7999 1277.67 32.3499 1277.67 23.3999V1.3999H1285.02V23.3499C1285.02 27.8999 1287.82 29.9499 1291.72 29.9499C1295.62 29.9499 1298.42 27.8999 1298.42 23.3499V1.3999H1305.77V23.3999C1305.77 32.3499 1300.02 36.7999 1291.72 36.7999ZM1344.59 36.3999H1335.34L1327.74 22.6999H1323.34V36.3999H1315.44L1315.34 1.3999H1329.29C1336.19 1.3999 1340.69 5.5999 1340.69 12.0499C1340.69 15.8499 1338.84 19.1999 1335.64 21.0499L1344.59 36.3999ZM1323.34 8.1499V15.9499H1327.94C1331.04 15.9499 1332.79 14.4999 1332.79 12.0499C1332.79 9.5999 1331.04 8.1499 1327.94 8.1499H1323.34ZM1351.55 36.3999V1.3999H1375.6V8.1499H1359.45V14.5499H1372.25V21.3499H1359.45V29.5999H1376.15V36.3999H1351.55ZM1460.21 36.3999V1.3999H1472.16C1481.76 1.3999 1490.31 6.8999 1490.31 18.8999C1490.31 30.8999 1481.76 36.3999 1472.16 36.3999H1460.21ZM1467.96 29.5999H1471.31C1476.96 29.5999 1482.36 26.9999 1482.36 18.8999C1482.36 10.7999 1476.96 8.1499 1471.31 8.1499H1467.96V29.5999ZM1498.32 36.3999V1.3999H1522.37V8.1499H1506.22V14.5499H1519.02V21.3499H1506.22V29.5999H1522.92V36.3999H1498.32ZM1530.92 36.3999V1.3999H1538.82V29.5999H1554.52V36.3999H1530.92ZM1561.47 36.3999V1.3999H1569.37V36.3999H1561.47ZM1588.62 36.3999L1576.07 1.3999H1584.12L1592.37 26.8999L1600.67 1.3999H1608.72L1596.17 36.3999H1588.62ZM1615.38 36.3999V1.3999H1639.43V8.1499H1623.28V14.5499H1636.08V21.3499H1623.28V29.5999H1639.98V36.3999H1615.38ZM1677.22 36.3999H1667.97L1660.37 22.6999H1655.97V36.3999H1648.07L1647.97 1.3999H1661.92C1668.82 1.3999 1673.32 5.5999 1673.32 12.0499C1673.32 15.8499 1671.47 19.1999 1668.27 21.0499L1677.22 36.3999ZM1655.97 8.1499V15.9499H1660.57C1663.67 15.9499 1665.42 14.4999 1665.42 12.0499C1665.42 9.5999 1663.67 8.1499 1660.57 8.1499H1655.97Z" fill="#99B81B"/>
<path d="M11.3178 36.3999L10.3751 36.7337L10.6111 37.3999H11.3178V36.3999ZM8.76777 29.1999L9.7104 28.8661L9.47447 28.1999H8.76777V29.1999ZM-3.73223 29.1999V28.1999H-4.43892L-4.67485 28.8661L-3.73223 29.1999ZM-6.28223 36.3999V37.3999H-5.57553L-5.3396 36.7337L-6.28223 36.3999ZM-14.4822 36.3999L-15.4175 36.0459L-15.9301 37.3999H-14.4822V36.3999ZM-1.23223 1.3999V0.3999H-1.92291L-2.16745 1.04585L-1.23223 1.3999ZM6.21777 1.3999L7.153 1.04585L6.90846 0.3999H6.21777V1.3999ZM19.4678 36.3999V37.3999H20.9156L20.403 36.0459L19.4678 36.3999ZM-1.33223 22.5999L-2.27465 22.2655L-2.74815 23.5999H-1.33223V22.5999ZM6.36777 22.5999V23.5999H7.7837L7.3102 22.2655L6.36777 22.5999ZM2.51777 11.7499L3.4602 11.4155L2.51777 8.75956L1.57535 11.4155L2.51777 11.7499ZM11.3178 36.3999L12.2604 36.0661L9.7104 28.8661L8.76777 29.1999L7.82515 29.5337L10.3751 36.7337L11.3178 36.3999ZM8.76777 29.1999V28.1999H-3.73223V29.1999V30.1999H8.76777V29.1999ZM-3.73223 29.1999L-4.67485 28.8661L-7.22485 36.0661L-6.28223 36.3999L-5.3396 36.7337L-2.7896 29.5337L-3.73223 29.1999ZM-6.28223 36.3999V35.3999H-14.4822V36.3999V37.3999H-6.28223V36.3999ZM-14.4822 36.3999L-13.547 36.754L-0.296999 1.75395L-1.23223 1.3999L-2.16745 1.04585L-15.4175 36.0459L-14.4822 36.3999ZM-1.23223 1.3999V2.3999H6.21777V1.3999V0.3999H-1.23223V1.3999ZM6.21777 1.3999L5.28255 1.75395L18.5326 36.754L19.4678 36.3999L20.403 36.0459L7.153 1.04585L6.21777 1.3999ZM19.4678 36.3999V35.3999H11.3178V36.3999V37.3999H19.4678V36.3999ZM-1.33223 22.5999V23.5999H6.36777V22.5999V21.5999H-1.33223V22.5999ZM6.36777 22.5999L7.3102 22.2655L3.4602 11.4155L2.51777 11.7499L1.57535 12.0843L5.42535 22.9343L6.36777 22.5999ZM2.51777 11.7499L1.57535 11.4155L-2.27465 22.2655L-1.33223 22.5999L-0.389797 22.9343L3.4602 12.0843L2.51777 11.7499ZM25.7975 36.3999H24.7975V37.3999H25.7975V36.3999ZM25.7975 1.3999V0.3999H24.7975V1.3999H25.7975ZM33.5475 29.5999H32.5475V30.5999H33.5475V29.5999ZM33.5475 8.1499V7.1499H32.5475V8.1499H33.5475ZM25.7975 36.3999H26.7975V1.3999H25.7975H24.7975V36.3999H25.7975ZM25.7975 1.3999V2.3999H37.7475V1.3999V0.3999H25.7975V1.3999ZM37.7475 1.3999V2.3999C42.3674 2.3999 46.6543 3.72376 49.7698 6.40755C52.8628 9.07191 54.8975 13.1577 54.8975 18.8999H55.8975H56.8975C56.8975 12.6421 54.6572 7.9779 51.0751 4.89225C47.5156 1.82604 42.7276 0.3999 37.7475 0.3999V1.3999ZM55.8975 18.8999H54.8975C54.8975 24.6421 52.8628 28.7279 49.7698 31.3923C46.6543 34.076 42.3674 35.3999 37.7475 35.3999V36.3999V37.3999C42.7276 37.3999 47.5156 35.9738 51.0751 32.9076C54.6572 29.8219 56.8975 25.1577 56.8975 18.8999H55.8975ZM37.7475 36.3999V35.3999H25.7975V36.3999V37.3999H37.7475V36.3999ZM33.5475 29.5999V30.5999H36.8975V29.5999V28.5999H33.5475V29.5999ZM36.8975 29.5999V30.5999C39.855 30.5999 42.873 29.9221 45.1699 28.065C47.5044 26.1776 48.9475 23.1913 48.9475 18.8999H47.9475H46.9475C46.9475 22.7085 45.6905 25.0722 43.9125 26.5098C42.0969 27.9777 39.5899 28.5999 36.8975 28.5999V29.5999ZM47.9475 18.8999H48.9475C48.9475 14.6088 47.5047 11.6117 45.1728 9.71208C42.8769 7.84186 39.8587 7.1499 36.8975 7.1499V8.1499V9.1499C39.5862 9.1499 42.093 9.78294 43.9096 11.2627C45.6902 12.7131 46.9475 15.091 46.9475 18.8999H47.9475ZM36.8975 8.1499V7.1499H33.5475V8.1499V9.1499H36.8975V8.1499ZM33.5475 8.1499H32.5475V29.5999H33.5475H34.5475V8.1499H33.5475ZM80.4107 36.7999V35.7999C70.5593 35.7999 63.4107 28.6439 63.4107 18.8999H62.4107H61.4107C61.4107 29.7559 69.4622 37.7999 80.4107 37.7999V36.7999ZM62.4107 18.8999H63.4107C63.4107 9.15587 70.5593 1.9999 80.4107 1.9999V0.999902V-9.82285e-05C69.4622 -9.82285e-05 61.4107 8.04393 61.4107 18.8999H62.4107ZM80.4107 0.999902V1.9999C90.1585 1.9999 97.3107 9.15219 97.3107 18.8999H98.3107H99.3107C99.3107 8.04762 91.263 -9.82285e-05 80.4107 -9.82285e-05V0.999902ZM98.3107 18.8999H97.3107C97.3107 28.6476 90.1585 35.7999 80.4107 35.7999V36.7999V37.7999C91.263 37.7999 99.3107 29.7522 99.3107 18.8999H98.3107ZM80.3607 29.9999V30.9999C86.8577 30.9999 91.4107 25.7526 91.4107 18.8999H90.4107H89.4107C89.4107 24.8473 85.5638 28.9999 80.3607 28.9999V29.9999ZM90.4107 18.8999H91.4107C91.4107 12.0535 86.8633 6.7499 80.3607 6.7499V7.7499V8.7499C85.5582 8.7499 89.4107 12.9463 89.4107 18.8999H90.4107ZM80.3607 7.7499V6.7499C73.8051 6.7499 69.3107 12.0569 69.3107 18.8999H70.3107H71.3107C71.3107 12.9429 75.1164 8.7499 80.3607 8.7499V7.7499ZM70.3107 18.8999H69.3107C69.3107 25.7491 73.8107 30.9999 80.3607 30.9999V29.9999V28.9999C75.1108 28.9999 71.3107 24.8507 71.3107 18.8999H70.3107ZM106.371 36.3999H105.371V37.3999H106.371V36.3999ZM106.371 1.3999V0.3999H105.371V1.3999H106.371ZM114.271 23.2999V22.2999H113.271V23.2999H114.271ZM114.271 36.3999V37.3999H115.271V36.3999H114.271ZM114.271 16.5499H113.271V17.5499H114.271V16.5499ZM114.271 8.1499V7.1499H113.271V8.1499H114.271ZM106.371 36.3999H107.371V1.3999H106.371H105.371V36.3999H106.371ZM106.371 1.3999V2.3999H120.871V1.3999V0.3999H106.371V1.3999ZM120.871 1.3999V2.3999C124.3 2.3999 127.015 3.41467 128.862 5.11655C130.701 6.81072 131.771 9.26888 131.771 12.3499H132.771H133.771C133.771 8.78092 132.516 5.76408 130.217 3.64575C127.927 1.53513 124.691 0.3999 120.871 0.3999V1.3999ZM132.771 12.3499H131.771C131.771 15.4309 130.701 17.8891 128.862 19.5833C127.015 21.2851 124.3 22.2999 120.871 22.2999V23.2999V24.2999C124.691 24.2999 127.927 23.1647 130.217 21.0541C132.516 18.9357 133.771 15.9189 133.771 12.3499H132.771ZM120.871 23.2999V22.2999H114.271V23.2999V24.2999H120.871V23.2999ZM114.271 23.2999H113.271V36.3999H114.271H115.271V23.2999H114.271ZM114.271 36.3999V35.3999H106.371V36.3999V37.3999H114.271V36.3999ZM114.271 16.5499V17.5499H120.071V16.5499V15.5499H114.271V16.5499ZM120.071 16.5499V17.5499C121.741 17.5499 123.2 17.1039 124.256 16.1761C125.328 15.2342 125.871 13.894 125.871 12.3499H124.871H123.871C123.871 13.4058 123.514 14.1656 122.936 14.6737C122.342 15.1959 121.401 15.5499 120.071 15.5499V16.5499ZM124.871 12.3499H125.871C125.871 10.8058 125.328 9.46556 124.256 8.52374C123.2 7.59586 121.741 7.1499 120.071 7.1499V8.1499V9.1499C121.401 9.1499 122.342 9.50394 122.936 10.0261C123.514 10.5342 123.871 11.294 123.871 12.3499H124.871ZM120.071 8.1499V7.1499H114.271V8.1499V9.1499H120.071V8.1499ZM114.271 8.1499H113.271V16.5499H114.271H115.271V8.1499H114.271ZM147.89 36.3999H146.89V37.3999H147.89V36.3999ZM147.89 8.1499H148.89V7.1499H147.89V8.1499ZM137.59 8.1499H136.59V9.1499H137.59V8.1499ZM137.59 1.3999V0.3999H136.59V1.3999H137.59ZM166.04 1.3999H167.04V0.3999H166.04V1.3999ZM166.04 8.1499V9.1499H167.04V8.1499H166.04ZM155.79 8.1499V7.1499H154.79V8.1499H155.79ZM155.79 36.3999V37.3999H156.79V36.3999H155.79ZM147.89 36.3999H148.89V8.1499H147.89H146.89V36.3999H147.89ZM147.89 8.1499V7.1499H137.59V8.1499V9.1499H147.89V8.1499ZM137.59 8.1499H138.59V1.3999H137.59H136.59V8.1499H137.59ZM137.59 1.3999V2.3999H166.04V1.3999V0.3999H137.59V1.3999ZM166.04 1.3999H165.04V8.1499H166.04H167.04V1.3999H166.04ZM166.04 8.1499V7.1499H155.79V8.1499V9.1499H166.04V8.1499ZM155.79 8.1499H154.79V36.3999H155.79H156.79V8.1499H155.79ZM155.79 36.3999V35.3999H147.89V36.3999V37.3999H155.79V36.3999ZM249.188 36.3999H248.188V37.3999H249.188V36.3999ZM249.188 1.3999V0.3999H248.188V1.3999H249.188ZM257.038 1.3999L257.894 0.88261L257.602 0.3999H257.038V1.3999ZM270.638 23.8999L269.782 24.4172L271.638 27.4875V23.8999H270.638ZM270.638 1.3999V0.3999H269.638V1.3999H270.638ZM277.988 1.3999H278.988V0.3999H277.988V1.3999ZM277.988 36.3999V37.3999H278.988V36.3999H277.988ZM270.138 36.3999L269.282 36.9172L269.574 37.3999H270.138V36.3999ZM256.538 13.8999L257.394 13.3826L255.538 10.3123V13.8999H256.538ZM256.538 36.3999V37.3999H257.538V36.3999H256.538ZM249.188 36.3999H250.188V1.3999H249.188H248.188V36.3999H249.188ZM249.188 1.3999V2.3999H257.038V1.3999V0.3999H249.188V1.3999ZM257.038 1.3999L256.182 1.91719L269.782 24.4172L270.638 23.8999L271.494 23.3826L257.894 0.88261L257.038 1.3999ZM270.638 23.8999H271.638V1.3999H270.638H269.638V23.8999H270.638ZM270.638 1.3999V2.3999H277.988V1.3999V0.3999H270.638V1.3999ZM277.988 1.3999H276.988V36.3999H277.988H278.988V1.3999H277.988ZM277.988 36.3999V35.3999H270.138V36.3999V37.3999H277.988V36.3999ZM270.138 36.3999L270.994 35.8826L257.394 13.3826L256.538 13.8999L255.682 14.4172L269.282 36.9172L270.138 36.3999ZM256.538 13.8999H255.538V36.3999H256.538H257.538V13.8999H256.538ZM256.538 36.3999V35.3999H249.188V36.3999V37.3999H256.538V36.3999ZM287.546 1.3999V0.3999H286.546V1.3999H287.546ZM294.896 1.3999H295.896V0.3999H294.896V1.3999ZM308.296 1.3999V0.3999H307.296V1.3999H308.296ZM315.646 1.3999H316.646V0.3999H315.646V1.3999ZM301.596 36.7999V35.7999C297.615 35.7999 294.368 34.7333 292.128 32.7134C289.903 30.7081 288.546 27.6509 288.546 23.3999H287.546H286.546C286.546 28.0989 288.063 31.7417 290.788 34.1989C293.498 36.6415 297.276 37.7999 301.596 37.7999V36.7999ZM287.546 23.3999H288.546V1.3999H287.546H286.546V23.3999H287.546ZM287.546 1.3999V2.3999H294.896V1.3999V0.3999H287.546V1.3999ZM294.896 1.3999H293.896V23.3499H294.896H295.896V1.3999H294.896ZM294.896 23.3499H293.896C293.896 25.8369 294.668 27.7826 296.11 29.0956C297.536 30.3939 299.481 30.9499 301.596 30.9499V29.9499V28.9499C299.81 28.9499 298.405 28.4809 297.456 27.6167C296.523 26.7672 295.896 25.4129 295.896 23.3499H294.896ZM301.596 29.9499V30.9499C303.71 30.9499 305.655 30.3939 307.081 29.0956C308.523 27.7826 309.296 25.8369 309.296 23.3499H308.296H307.296C307.296 25.4129 306.668 26.7672 305.735 27.6167C304.786 28.4809 303.381 28.9499 301.596 28.9499V29.9499ZM308.296 23.3499H309.296V1.3999H308.296H307.296V23.3499H308.296ZM308.296 1.3999V2.3999H315.646V1.3999V0.3999H308.296V1.3999ZM315.646 1.3999H314.646V23.3999H315.646H316.646V1.3999H315.646ZM315.646 23.3999H314.646C314.646 27.6509 313.288 30.7081 311.063 32.7134C308.823 34.7333 305.576 35.7999 301.596 35.7999V36.7999V37.7999C305.915 37.7999 309.693 36.6415 312.403 34.1989C315.128 31.7417 316.646 28.0989 316.646 23.3999H315.646ZM354.469 36.3999V37.3999H356.21L355.333 35.8962L354.469 36.3999ZM345.219 36.3999L344.345 36.885L344.631 37.3999H345.219V36.3999ZM337.619 22.6999L338.494 22.2148L338.208 21.6999H337.619V22.6999ZM333.219 22.6999V21.6999H332.219V22.6999H333.219ZM333.219 36.3999V37.3999H334.219V36.3999H333.219ZM325.319 36.3999L324.319 36.4028L324.322 37.3999H325.319V36.3999ZM325.219 1.3999V0.3999H324.216L324.219 1.40276L325.219 1.3999ZM345.519 21.0499L345.019 20.1842L344.15 20.6865L344.655 21.5536L345.519 21.0499ZM333.219 8.1499V7.1499H332.219V8.1499H333.219ZM333.219 15.9499H332.219V16.9499H333.219V15.9499ZM354.469 36.3999V35.3999H345.219V36.3999V37.3999H354.469V36.3999ZM345.219 36.3999L346.094 35.9148L338.494 22.2148L337.619 22.6999L336.745 23.185L344.345 36.885L345.219 36.3999ZM337.619 22.6999V21.6999H333.219V22.6999V23.6999H337.619V22.6999ZM333.219 22.6999H332.219V36.3999H333.219H334.219V22.6999H333.219ZM333.219 36.3999V35.3999H325.319V36.3999V37.3999H333.219V36.3999ZM325.319 36.3999L326.319 36.397L326.219 1.39704L325.219 1.3999L324.219 1.40276L324.319 36.4028L325.319 36.3999ZM325.219 1.3999V2.3999H339.169V1.3999V0.3999H325.219V1.3999ZM339.169 1.3999V2.3999C342.417 2.3999 345.006 3.3858 346.774 5.03698C348.535 6.68184 349.569 9.06755 349.569 12.0499H350.569H351.569C351.569 8.58225 350.353 5.64296 348.139 3.57532C345.932 1.514 342.821 0.3999 339.169 0.3999V1.3999ZM350.569 12.0499H349.569C349.569 15.5144 347.892 18.5234 345.019 20.1842L345.519 21.0499L346.02 21.9156C349.547 19.8764 351.569 16.1855 351.569 12.0499H350.569ZM345.519 21.0499L344.655 21.5536L353.605 36.9036L354.469 36.3999L355.333 35.8962L346.383 20.5462L345.519 21.0499ZM333.219 8.1499H332.219V15.9499H333.219H334.219V8.1499H333.219ZM333.219 15.9499V16.9499H337.819V15.9499V14.9499H333.219V15.9499ZM337.819 15.9499V16.9499C339.51 16.9499 340.975 16.556 342.037 15.6955C343.127 14.8112 343.669 13.5332 343.669 12.0499H342.669H341.669C341.669 13.0166 341.336 13.6886 340.777 14.1418C340.189 14.6188 339.229 14.9499 337.819 14.9499V15.9499ZM342.669 12.0499H343.669C343.669 10.5666 343.127 9.28857 342.037 8.40432C340.975 7.54379 339.51 7.1499 337.819 7.1499V8.1499V9.1499C339.229 9.1499 340.189 9.48102 340.777 9.95798C341.336 10.4112 341.669 11.0832 341.669 12.0499H342.669ZM337.819 8.1499V7.1499H333.219V8.1499V9.1499H337.819V8.1499ZM366.495 36.3999H365.495V37.3999H366.495V36.3999ZM366.495 8.1499H367.495V7.1499H366.495V8.1499ZM356.195 8.1499H355.195V9.1499H356.195V8.1499ZM356.195 1.3999V0.3999H355.195V1.3999H356.195ZM384.645 1.3999H385.645V0.3999H384.645V1.3999ZM384.645 8.1499V9.1499H385.645V8.1499H384.645ZM374.395 8.1499V7.1499H373.395V8.1499H374.395ZM374.395 36.3999V37.3999H375.395V36.3999H374.395ZM366.495 36.3999H367.495V8.1499H366.495H365.495V36.3999H366.495ZM366.495 8.1499V7.1499H356.195V8.1499V9.1499H366.495V8.1499ZM356.195 8.1499H357.195V1.3999H356.195H355.195V8.1499H356.195ZM356.195 1.3999V2.3999H384.645V1.3999V0.3999H356.195V1.3999ZM384.645 1.3999H383.645V8.1499H384.645H385.645V1.3999H384.645ZM384.645 8.1499V7.1499H374.395V8.1499V9.1499H384.645V8.1499ZM374.395 8.1499H373.395V36.3999H374.395H375.395V8.1499H374.395ZM374.395 36.3999V35.3999H366.495V36.3999V37.3999H374.395V36.3999ZM391.729 1.3999V0.3999H390.729V1.3999H391.729ZM399.079 1.3999H400.079V0.3999H399.079V1.3999ZM412.479 1.3999V0.3999H411.479V1.3999H412.479ZM419.829 1.3999H420.829V0.3999H419.829V1.3999ZM405.779 36.7999V35.7999C401.798 35.7999 398.552 34.7333 396.311 32.7134C394.087 30.7081 392.729 27.6509 392.729 23.3999H391.729H390.729C390.729 28.0989 392.246 31.7417 394.972 34.1989C397.681 36.6415 401.46 37.7999 405.779 37.7999V36.7999ZM391.729 23.3999H392.729V1.3999H391.729H390.729V23.3999H391.729ZM391.729 1.3999V2.3999H399.079V1.3999V0.3999H391.729V1.3999ZM399.079 1.3999H398.079V23.3499H399.079H400.079V1.3999H399.079ZM399.079 23.3499H398.079C398.079 25.8369 398.851 27.7826 400.293 29.0956C401.719 30.3939 403.665 30.9499 405.779 30.9499V29.9499V28.9499C403.993 28.9499 402.589 28.4809 401.64 27.6167C400.707 26.7672 400.079 25.4129 400.079 23.3499H399.079ZM405.779 29.9499V30.9499C407.893 30.9499 409.839 30.3939 411.265 29.0956C412.707 27.7826 413.479 25.8369 413.479 23.3499H412.479H411.479C411.479 25.4129 410.851 26.7672 409.918 27.6167C408.969 28.4809 407.565 28.9499 405.779 28.9499V29.9499ZM412.479 23.3499H413.479V1.3999H412.479H411.479V23.3499H412.479ZM412.479 1.3999V2.3999H419.829V1.3999V0.3999H412.479V1.3999ZM419.829 1.3999H418.829V23.3999H419.829H420.829V1.3999H419.829ZM419.829 23.3999H418.829C418.829 27.6509 417.471 30.7081 415.247 32.7134C413.006 34.7333 409.76 35.7999 405.779 35.7999V36.7999V37.7999C410.098 37.7999 413.877 36.6415 416.586 34.1989C419.312 31.7417 420.829 28.0989 420.829 23.3999H419.829ZM458.653 36.3999V37.3999H460.394L459.517 35.8962L458.653 36.3999ZM449.403 36.3999L448.528 36.885L448.814 37.3999H449.403V36.3999ZM441.803 22.6999L442.677 22.2148L442.392 21.6999H441.803V22.6999ZM437.403 22.6999V21.6999H436.403V22.6999H437.403ZM437.403 36.3999V37.3999H438.403V36.3999H437.403ZM429.503 36.3999L428.503 36.4028L428.506 37.3999H429.503V36.3999ZM429.403 1.3999V0.3999H428.4L428.403 1.40276L429.403 1.3999ZM449.703 21.0499L449.202 20.1842L448.333 20.6865L448.839 21.5536L449.703 21.0499ZM437.403 8.1499V7.1499H436.403V8.1499H437.403ZM437.403 15.9499H436.403V16.9499H437.403V15.9499ZM458.653 36.3999V35.3999H449.403V36.3999V37.3999H458.653V36.3999ZM449.403 36.3999L450.277 35.9148L442.677 22.2148L441.803 22.6999L440.928 23.185L448.528 36.885L449.403 36.3999ZM441.803 22.6999V21.6999H437.403V22.6999V23.6999H441.803V22.6999ZM437.403 22.6999H436.403V36.3999H437.403H438.403V22.6999H437.403ZM437.403 36.3999V35.3999H429.503V36.3999V37.3999H437.403V36.3999ZM429.503 36.3999L430.503 36.397L430.403 1.39704L429.403 1.3999L428.403 1.40276L428.503 36.4028L429.503 36.3999ZM429.403 1.3999V2.3999H443.353V1.3999V0.3999H429.403V1.3999ZM443.353 1.3999V2.3999C446.601 2.3999 449.19 3.3858 450.958 5.03698C452.719 6.68184 453.753 9.06755 453.753 12.0499H454.753H455.753C455.753 8.58225 454.537 5.64296 452.323 3.57532C450.116 1.514 447.005 0.3999 443.353 0.3999V1.3999ZM454.753 12.0499H453.753C453.753 15.5144 452.075 18.5234 449.202 20.1842L449.703 21.0499L450.203 21.9156C453.731 19.8764 455.753 16.1855 455.753 12.0499H454.753ZM449.703 21.0499L448.839 21.5536L457.789 36.9036L458.653 36.3999L459.517 35.8962L450.567 20.5462L449.703 21.0499ZM437.403 8.1499H436.403V15.9499H437.403H438.403V8.1499H437.403ZM437.403 15.9499V16.9499H442.003V15.9499V14.9499H437.403V15.9499ZM442.003 15.9499V16.9499C443.694 16.9499 445.159 16.556 446.22 15.6955C447.311 14.8112 447.853 13.5332 447.853 12.0499H446.853H445.853C445.853 13.0166 445.52 13.6886 444.961 14.1418C444.372 14.6188 443.412 14.9499 442.003 14.9499V15.9499ZM446.853 12.0499H447.853C447.853 10.5666 447.311 9.28857 446.22 8.40432C445.159 7.54379 443.694 7.1499 442.003 7.1499V8.1499V9.1499C443.412 9.1499 444.372 9.48102 444.961 9.95798C445.52 10.4112 445.853 11.0832 445.853 12.0499H446.853ZM442.003 8.1499V7.1499H437.403V8.1499V9.1499H442.003V8.1499ZM465.612 36.3999H464.612V37.3999H465.612V36.3999ZM465.612 1.3999V0.3999H464.612V1.3999H465.612ZM489.662 1.3999H490.662V0.3999H489.662V1.3999ZM489.662 8.1499V9.1499H490.662V8.1499H489.662ZM473.512 8.1499V7.1499H472.512V8.1499H473.512ZM473.512 14.5499H472.512V15.5499H473.512V14.5499ZM486.312 14.5499H487.312V13.5499H486.312V14.5499ZM486.312 21.3499V22.3499H487.312V21.3499H486.312ZM473.512 21.3499V20.3499H472.512V21.3499H473.512ZM473.512 29.5999H472.512V30.5999H473.512V29.5999ZM490.212 29.5999H491.212V28.5999H490.212V29.5999ZM490.212 36.3999V37.3999H491.212V36.3999H490.212ZM465.612 36.3999H466.612V1.3999H465.612H464.612V36.3999H465.612ZM465.612 1.3999V2.3999H489.662V1.3999V0.3999H465.612V1.3999ZM489.662 1.3999H488.662V8.1499H489.662H490.662V1.3999H489.662ZM489.662 8.1499V7.1499H473.512V8.1499V9.1499H489.662V8.1499ZM473.512 8.1499H472.512V14.5499H473.512H474.512V8.1499H473.512ZM473.512 14.5499V15.5499H486.312V14.5499V13.5499H473.512V14.5499ZM486.312 14.5499H485.312V21.3499H486.312H487.312V14.5499H486.312ZM486.312 21.3499V20.3499H473.512V21.3499V22.3499H486.312V21.3499ZM473.512 21.3499H472.512V29.5999H473.512H474.512V21.3499H473.512ZM473.512 29.5999V30.5999H490.212V29.5999V28.5999H473.512V29.5999ZM490.212 29.5999H489.212V36.3999H490.212H491.212V29.5999H490.212ZM490.212 36.3999V35.3999H465.612V36.3999V37.3999H490.212V36.3999ZM574.272 36.3999H573.272V37.3999H574.272V36.3999ZM574.272 1.3999V0.3999H573.272V1.3999H574.272ZM582.022 29.5999H581.022V30.5999H582.022V29.5999ZM582.022 8.1499V7.1499H581.022V8.1499H582.022ZM574.272 36.3999H575.272V1.3999H574.272H573.272V36.3999H574.272ZM574.272 1.3999V2.3999H586.222V1.3999V0.3999H574.272V1.3999ZM586.222 1.3999V2.3999C590.842 2.3999 595.129 3.72376 598.244 6.40755C601.337 9.07191 603.372 13.1577 603.372 18.8999H604.372H605.372C605.372 12.6421 603.132 7.9779 599.55 4.89225C595.99 1.82604 591.202 0.3999 586.222 0.3999V1.3999ZM604.372 18.8999H603.372C603.372 24.6421 601.337 28.7279 598.244 31.3923C595.129 34.076 590.842 35.3999 586.222 35.3999V36.3999V37.3999C591.202 37.3999 595.99 35.9738 599.55 32.9076C603.132 29.8219 605.372 25.1577 605.372 18.8999H604.372ZM586.222 36.3999V35.3999H574.272V36.3999V37.3999H586.222V36.3999ZM582.022 29.5999V30.5999H585.372V29.5999V28.5999H582.022V29.5999ZM585.372 29.5999V30.5999C588.33 30.5999 591.348 29.9221 593.645 28.065C595.979 26.1776 597.422 23.1913 597.422 18.8999H596.422H595.422C595.422 22.7085 594.165 25.0722 592.387 26.5098C590.572 27.9777 588.065 28.5999 585.372 28.5999V29.5999ZM596.422 18.8999H597.422C597.422 14.6088 595.979 11.6117 593.647 9.71208C591.352 7.84186 588.333 7.1499 585.372 7.1499V8.1499V9.1499C588.061 9.1499 590.568 9.78294 592.384 11.2627C594.165 12.7131 595.422 15.091 595.422 18.8999H596.422ZM585.372 8.1499V7.1499H582.022V8.1499V9.1499H585.372V8.1499ZM582.022 8.1499H581.022V29.5999H582.022H583.022V8.1499H582.022ZM612.385 36.3999H611.385V37.3999H612.385V36.3999ZM612.385 1.3999V0.3999H611.385V1.3999H612.385ZM636.435 1.3999H637.435V0.3999H636.435V1.3999ZM636.435 8.1499V9.1499H637.435V8.1499H636.435ZM620.285 8.1499V7.1499H619.285V8.1499H620.285ZM620.285 14.5499H619.285V15.5499H620.285V14.5499ZM633.085 14.5499H634.085V13.5499H633.085V14.5499ZM633.085 21.3499V22.3499H634.085V21.3499H633.085ZM620.285 21.3499V20.3499H619.285V21.3499H620.285ZM620.285 29.5999H619.285V30.5999H620.285V29.5999ZM636.985 29.5999H637.985V28.5999H636.985V29.5999ZM636.985 36.3999V37.3999H637.985V36.3999H636.985ZM612.385 36.3999H613.385V1.3999H612.385H611.385V36.3999H612.385ZM612.385 1.3999V2.3999H636.435V1.3999V0.3999H612.385V1.3999ZM636.435 1.3999H635.435V8.1499H636.435H637.435V1.3999H636.435ZM636.435 8.1499V7.1499H620.285V8.1499V9.1499H636.435V8.1499ZM620.285 8.1499H619.285V14.5499H620.285H621.285V8.1499H620.285ZM620.285 14.5499V15.5499H633.085V14.5499V13.5499H620.285V14.5499ZM633.085 14.5499H632.085V21.3499H633.085H634.085V14.5499H633.085ZM633.085 21.3499V20.3499H620.285V21.3499V22.3499H633.085V21.3499ZM620.285 21.3499H619.285V29.5999H620.285H621.285V21.3499H620.285ZM620.285 29.5999V30.5999H636.985V29.5999V28.5999H620.285V29.5999ZM636.985 29.5999H635.985V36.3999H636.985H637.985V29.5999H636.985ZM636.985 36.3999V35.3999H612.385V36.3999V37.3999H636.985V36.3999ZM644.981 36.3999H643.981V37.3999H644.981V36.3999ZM644.981 1.3999V0.3999H643.981V1.3999H644.981ZM652.881 1.3999H653.881V0.3999H652.881V1.3999ZM652.881 29.5999H651.881V30.5999H652.881V29.5999ZM668.581 29.5999H669.581V28.5999H668.581V29.5999ZM668.581 36.3999V37.3999H669.581V36.3999H668.581ZM644.981 36.3999H645.981V1.3999H644.981H643.981V36.3999H644.981ZM644.981 1.3999V2.3999H652.881V1.3999V0.3999H644.981V1.3999ZM652.881 1.3999H651.881V29.5999H652.881H653.881V1.3999H652.881ZM652.881 29.5999V30.5999H668.581V29.5999V28.5999H652.881V29.5999ZM668.581 29.5999H667.581V36.3999H668.581H669.581V29.5999H668.581ZM668.581 36.3999V35.3999H644.981V36.3999V37.3999H668.581V36.3999ZM675.526 36.3999H674.526V37.3999H675.526V36.3999ZM675.526 1.3999V0.3999H674.526V1.3999H675.526ZM683.426 1.3999H684.426V0.3999H683.426V1.3999ZM683.426 36.3999V37.3999H684.426V36.3999H683.426ZM675.526 36.3999H676.526V1.3999H675.526H674.526V36.3999H675.526ZM675.526 1.3999V2.3999H683.426V1.3999V0.3999H675.526V1.3999ZM683.426 1.3999H682.426V36.3999H683.426H684.426V1.3999H683.426ZM683.426 36.3999V35.3999H675.526V36.3999V37.3999H683.426V36.3999ZM702.685 36.3999L701.744 36.7374L701.981 37.3999H702.685V36.3999ZM690.135 1.3999V0.3999H688.714L689.194 1.73743L690.135 1.3999ZM698.185 1.3999L699.136 1.09208L698.912 0.3999H698.185V1.3999ZM706.435 26.8999L705.484 27.2077L706.432 30.1397L707.386 27.2094L706.435 26.8999ZM714.735 1.3999V0.3999H714.009L713.784 1.09039L714.735 1.3999ZM722.785 1.3999L723.726 1.73743L724.206 0.3999H722.785V1.3999ZM710.235 36.3999V37.3999H710.939L711.176 36.7374L710.235 36.3999ZM702.685 36.3999L703.626 36.0624L691.076 1.06237L690.135 1.3999L689.194 1.73743L701.744 36.7374L702.685 36.3999ZM690.135 1.3999V2.3999H698.185V1.3999V0.3999H690.135V1.3999ZM698.185 1.3999L697.234 1.70772L705.484 27.2077L706.435 26.8999L707.386 26.5921L699.136 1.09208L698.185 1.3999ZM706.435 26.8999L707.386 27.2094L715.686 1.70941L714.735 1.3999L713.784 1.09039L705.484 26.5904L706.435 26.8999ZM714.735 1.3999V2.3999H722.785V1.3999V0.3999H714.735V1.3999ZM722.785 1.3999L721.844 1.06237L709.294 36.0624L710.235 36.3999L711.176 36.7374L723.726 1.73743L722.785 1.3999ZM710.235 36.3999V35.3999H702.685V36.3999V37.3999H710.235V36.3999ZM729.438 36.3999H728.438V37.3999H729.438V36.3999ZM729.438 1.3999V0.3999H728.438V1.3999H729.438ZM753.488 1.3999H754.488V0.3999H753.488V1.3999ZM753.488 8.1499V9.1499H754.488V8.1499H753.488ZM737.338 8.1499V7.1499H736.338V8.1499H737.338ZM737.338 14.5499H736.338V15.5499H737.338V14.5499ZM750.138 14.5499H751.138V13.5499H750.138V14.5499ZM750.138 21.3499V22.3499H751.138V21.3499H750.138ZM737.338 21.3499V20.3499H736.338V21.3499H737.338ZM737.338 29.5999H736.338V30.5999H737.338V29.5999ZM754.038 29.5999H755.038V28.5999H754.038V29.5999ZM754.038 36.3999V37.3999H755.038V36.3999H754.038ZM729.438 36.3999H730.438V1.3999H729.438H728.438V36.3999H729.438ZM729.438 1.3999V2.3999H753.488V1.3999V0.3999H729.438V1.3999ZM753.488 1.3999H752.488V8.1499H753.488H754.488V1.3999H753.488ZM753.488 8.1499V7.1499H737.338V8.1499V9.1499H753.488V8.1499ZM737.338 8.1499H736.338V14.5499H737.338H738.338V8.1499H737.338ZM737.338 14.5499V15.5499H750.138V14.5499V13.5499H737.338V14.5499ZM750.138 14.5499H749.138V21.3499H750.138H751.138V14.5499H750.138ZM750.138 21.3499V20.3499H737.338V21.3499V22.3499H750.138V21.3499ZM737.338 21.3499H736.338V29.5999H737.338H738.338V21.3499H737.338ZM737.338 29.5999V30.5999H754.038V29.5999V28.5999H737.338V29.5999ZM754.038 29.5999H753.038V36.3999H754.038H755.038V29.5999H754.038ZM754.038 36.3999V35.3999H729.438V36.3999V37.3999H754.038V36.3999ZM791.284 36.3999V37.3999H793.024L792.148 35.8962L791.284 36.3999ZM782.034 36.3999L781.159 36.885L781.445 37.3999H782.034V36.3999ZM774.434 22.6999L775.308 22.2148L775.023 21.6999H774.434V22.6999ZM770.034 22.6999V21.6999H769.034V22.6999H770.034ZM770.034 36.3999V37.3999H771.034V36.3999H770.034ZM762.134 36.3999L761.134 36.4028L761.137 37.3999H762.134V36.3999ZM762.034 1.3999V0.3999H761.031L761.034 1.40276L762.034 1.3999ZM782.334 21.0499L781.833 20.1842L780.964 20.6865L781.47 21.5536L782.334 21.0499ZM770.034 8.1499V7.1499H769.034V8.1499H770.034ZM770.034 15.9499H769.034V16.9499H770.034V15.9499ZM791.284 36.3999V35.3999H782.034V36.3999V37.3999H791.284V36.3999ZM782.034 36.3999L782.908 35.9148L775.308 22.2148L774.434 22.6999L773.559 23.185L781.159 36.885L782.034 36.3999ZM774.434 22.6999V21.6999H770.034V22.6999V23.6999H774.434V22.6999ZM770.034 22.6999H769.034V36.3999H770.034H771.034V22.6999H770.034ZM770.034 36.3999V35.3999H762.134V36.3999V37.3999H770.034V36.3999ZM762.134 36.3999L763.134 36.397L763.034 1.39704L762.034 1.3999L761.034 1.40276L761.134 36.4028L762.134 36.3999ZM762.034 1.3999V2.3999H775.984V1.3999V0.3999H762.034V1.3999ZM775.984 1.3999V2.3999C779.232 2.3999 781.821 3.3858 783.589 5.03698C785.35 6.68184 786.384 9.06755 786.384 12.0499H787.384H788.384C788.384 8.58225 787.168 5.64296 784.954 3.57532C782.747 1.514 779.636 0.3999 775.984 0.3999V1.3999ZM787.384 12.0499H786.384C786.384 15.5144 784.706 18.5234 781.833 20.1842L782.334 21.0499L782.834 21.9156C786.362 19.8764 788.384 16.1855 788.384 12.0499H787.384ZM782.334 21.0499L781.47 21.5536L790.42 36.9036L791.284 36.3999L792.148 35.8962L783.198 20.5462L782.334 21.0499ZM770.034 8.1499H769.034V15.9499H770.034H771.034V8.1499H770.034ZM770.034 15.9499V16.9499H774.634V15.9499V14.9499H770.034V15.9499ZM774.634 15.9499V16.9499C776.324 16.9499 777.789 16.556 778.851 15.6955C779.942 14.8112 780.484 13.5332 780.484 12.0499H779.484H778.484C778.484 13.0166 778.151 13.6886 777.592 14.1418C777.003 14.6188 776.043 14.9499 774.634 14.9499V15.9499ZM779.484 12.0499H780.484C780.484 10.5666 779.942 9.28857 778.851 8.40432C777.789 7.54379 776.324 7.1499 774.634 7.1499V8.1499V9.1499C776.043 9.1499 777.003 9.48102 777.592 9.95798C778.151 10.4112 778.484 11.0832 778.484 12.0499H779.484ZM774.634 8.1499V7.1499H770.034V8.1499V9.1499H774.634V8.1499ZM897.257 36.3999L896.315 36.7337L896.551 37.3999H897.257V36.3999ZM894.707 29.1999L895.65 28.8661L895.414 28.1999H894.707V29.1999ZM882.207 29.1999V28.1999H881.501L881.265 28.8661L882.207 29.1999ZM879.657 36.3999V37.3999H880.364L880.6 36.7337L879.657 36.3999ZM871.457 36.3999L870.522 36.0459L870.009 37.3999H871.457V36.3999ZM884.707 1.3999V0.3999H884.017L883.772 1.04585L884.707 1.3999ZM892.157 1.3999L893.092 1.04585L892.848 0.3999H892.157V1.3999ZM905.407 36.3999V37.3999H906.855L906.342 36.0459L905.407 36.3999ZM884.607 22.5999L883.665 22.2655L883.191 23.5999H884.607V22.5999ZM892.307 22.5999V23.5999H893.723L893.25 22.2655L892.307 22.5999ZM888.457 11.7499L889.4 11.4155L888.457 8.75956L887.515 11.4155L888.457 11.7499ZM897.257 36.3999L898.2 36.0661L895.65 28.8661L894.707 29.1999L893.765 29.5337L896.315 36.7337L897.257 36.3999ZM894.707 29.1999V28.1999H882.207V29.1999V30.1999H894.707V29.1999ZM882.207 29.1999L881.265 28.8661L878.715 36.0661L879.657 36.3999L880.6 36.7337L883.15 29.5337L882.207 29.1999ZM879.657 36.3999V35.3999H871.457V36.3999V37.3999H879.657V36.3999ZM871.457 36.3999L872.392 36.754L885.642 1.75395L884.707 1.3999L883.772 1.04585L870.522 36.0459L871.457 36.3999ZM884.707 1.3999V2.3999H892.157V1.3999V0.3999H884.707V1.3999ZM892.157 1.3999L891.222 1.75395L904.472 36.754L905.407 36.3999L906.342 36.0459L893.092 1.04585L892.157 1.3999ZM905.407 36.3999V35.3999H897.257V36.3999V37.3999H905.407V36.3999ZM884.607 22.5999V23.5999H892.307V22.5999V21.5999H884.607V22.5999ZM892.307 22.5999L893.25 22.2655L889.4 11.4155L888.457 11.7499L887.515 12.0843L891.365 22.9343L892.307 22.5999ZM888.457 11.7499L887.515 11.4155L883.665 22.2655L884.607 22.5999L885.55 22.9343L889.4 12.0843L888.457 11.7499ZM911.737 36.3999H910.737V37.3999H911.737V36.3999ZM911.737 1.3999V0.3999H910.737V1.3999H911.737ZM919.487 29.5999H918.487V30.5999H919.487V29.5999ZM919.487 8.1499V7.1499H918.487V8.1499H919.487ZM911.737 36.3999H912.737V1.3999H911.737H910.737V36.3999H911.737ZM911.737 1.3999V2.3999H923.687V1.3999V0.3999H911.737V1.3999ZM923.687 1.3999V2.3999C928.307 2.3999 932.594 3.72376 935.709 6.40755C938.802 9.07191 940.837 13.1577 940.837 18.8999H941.837H942.837C942.837 12.6421 940.597 7.9779 937.015 4.89225C933.455 1.82604 928.667 0.3999 923.687 0.3999V1.3999ZM941.837 18.8999H940.837C940.837 24.6421 938.802 28.7279 935.709 31.3923C932.594 34.076 928.307 35.3999 923.687 35.3999V36.3999V37.3999C928.667 37.3999 933.455 35.9738 937.015 32.9076C940.597 29.8219 942.837 25.1577 942.837 18.8999H941.837ZM923.687 36.3999V35.3999H911.737V36.3999V37.3999H923.687V36.3999ZM919.487 29.5999V30.5999H922.837V29.5999V28.5999H919.487V29.5999ZM922.837 29.5999V30.5999C925.794 30.5999 928.812 29.9221 931.109 28.065C933.444 26.1776 934.887 23.1913 934.887 18.8999H933.887H932.887C932.887 22.7085 931.63 25.0722 929.852 26.5098C928.036 27.9777 925.529 28.5999 922.837 28.5999V29.5999ZM933.887 18.8999H934.887C934.887 14.6088 933.444 11.6117 931.112 9.71208C928.816 7.84186 925.798 7.1499 922.837 7.1499V8.1499V9.1499C925.526 9.1499 928.033 9.78294 929.849 11.2627C931.63 12.7131 932.887 15.091 932.887 18.8999H933.887ZM922.837 8.1499V7.1499H919.487V8.1499V9.1499H922.837V8.1499ZM919.487 8.1499H918.487V29.5999H919.487H920.487V8.1499H919.487ZM966.35 36.7999V35.7999C956.499 35.7999 949.35 28.6439 949.35 18.8999H948.35H947.35C947.35 29.7559 955.402 37.7999 966.35 37.7999V36.7999ZM948.35 18.8999H949.35C949.35 9.15587 956.499 1.9999 966.35 1.9999V0.999902V-9.82285e-05C955.402 -9.82285e-05 947.35 8.04393 947.35 18.8999H948.35ZM966.35 0.999902V1.9999C976.098 1.9999 983.25 9.15219 983.25 18.8999H984.25H985.25C985.25 8.04762 977.202 -9.82285e-05 966.35 -9.82285e-05V0.999902ZM984.25 18.8999H983.25C983.25 28.6476 976.098 35.7999 966.35 35.7999V36.7999V37.7999C977.202 37.7999 985.25 29.7522 985.25 18.8999H984.25ZM966.3 29.9999V30.9999C972.797 30.9999 977.35 25.7526 977.35 18.8999H976.35H975.35C975.35 24.8473 971.503 28.9999 966.3 28.9999V29.9999ZM976.35 18.8999H977.35C977.35 12.0535 972.803 6.7499 966.3 6.7499V7.7499V8.7499C971.498 8.7499 975.35 12.9463 975.35 18.8999H976.35ZM966.3 7.7499V6.7499C959.745 6.7499 955.25 12.0569 955.25 18.8999H956.25H957.25C957.25 12.9429 961.056 8.7499 966.3 8.7499V7.7499ZM956.25 18.8999H955.25C955.25 25.7491 959.75 30.9999 966.3 30.9999V29.9999V28.9999C961.05 28.9999 957.25 24.8507 957.25 18.8999H956.25ZM992.31 36.3999H991.31V37.3999H992.31V36.3999ZM992.31 1.3999V0.3999H991.31V1.3999H992.31ZM1000.21 23.2999V22.2999H999.21V23.2999H1000.21ZM1000.21 36.3999V37.3999H1001.21V36.3999H1000.21ZM1000.21 16.5499H999.21V17.5499H1000.21V16.5499ZM1000.21 8.1499V7.1499H999.21V8.1499H1000.21ZM992.31 36.3999H993.31V1.3999H992.31H991.31V36.3999H992.31ZM992.31 1.3999V2.3999H1006.81V1.3999V0.3999H992.31V1.3999ZM1006.81 1.3999V2.3999C1010.24 2.3999 1012.95 3.41467 1014.8 5.11655C1016.64 6.81072 1017.71 9.26888 1017.71 12.3499H1018.71H1019.71C1019.71 8.78092 1018.46 5.76408 1016.16 3.64575C1013.87 1.53513 1010.63 0.3999 1006.81 0.3999V1.3999ZM1018.71 12.3499H1017.71C1017.71 15.4309 1016.64 17.8891 1014.8 19.5833C1012.95 21.2851 1010.24 22.2999 1006.81 22.2999V23.2999V24.2999C1010.63 24.2999 1013.87 23.1647 1016.16 21.0541C1018.46 18.9357 1019.71 15.9189 1019.71 12.3499H1018.71ZM1006.81 23.2999V22.2999H1000.21V23.2999V24.2999H1006.81V23.2999ZM1000.21 23.2999H999.21V36.3999H1000.21H1001.21V23.2999H1000.21ZM1000.21 36.3999V35.3999H992.31V36.3999V37.3999H1000.21V36.3999ZM1000.21 16.5499V17.5499H1006.01V16.5499V15.5499H1000.21V16.5499ZM1006.01 16.5499V17.5499C1007.68 17.5499 1009.14 17.1039 1010.2 16.1761C1011.27 15.2342 1011.81 13.894 1011.81 12.3499H1010.81H1009.81C1009.81 13.4058 1009.45 14.1656 1008.88 14.6737C1008.28 15.1959 1007.34 15.5499 1006.01 15.5499V16.5499ZM1010.81 12.3499H1011.81C1011.81 10.8058 1011.27 9.46556 1010.2 8.52374C1009.14 7.59586 1007.68 7.1499 1006.01 7.1499V8.1499V9.1499C1007.34 9.1499 1008.28 9.50394 1008.88 10.0261C1009.45 10.5342 1009.81 11.294 1009.81 12.3499H1010.81ZM1006.01 8.1499V7.1499H1000.21V8.1499V9.1499H1006.01V8.1499ZM1000.21 8.1499H999.21V16.5499H1000.21H1001.21V8.1499H1000.21ZM1033.83 36.3999H1032.83V37.3999H1033.83V36.3999ZM1033.83 8.1499H1034.83V7.1499H1033.83V8.1499ZM1023.53 8.1499H1022.53V9.1499H1023.53V8.1499ZM1023.53 1.3999V0.3999H1022.53V1.3999H1023.53ZM1051.98 1.3999H1052.98V0.3999H1051.98V1.3999ZM1051.98 8.1499V9.1499H1052.98V8.1499H1051.98ZM1041.73 8.1499V7.1499H1040.73V8.1499H1041.73ZM1041.73 36.3999V37.3999H1042.73V36.3999H1041.73ZM1033.83 36.3999H1034.83V8.1499H1033.83H1032.83V36.3999H1033.83ZM1033.83 8.1499V7.1499H1023.53V8.1499V9.1499H1033.83V8.1499ZM1023.53 8.1499H1024.53V1.3999H1023.53H1022.53V8.1499H1023.53ZM1023.53 1.3999V2.3999H1051.98V1.3999V0.3999H1023.53V1.3999ZM1051.98 1.3999H1050.98V8.1499H1051.98H1052.98V1.3999H1051.98ZM1051.98 8.1499V7.1499H1041.73V8.1499V9.1499H1051.98V8.1499ZM1041.73 8.1499H1040.73V36.3999H1041.73H1042.73V8.1499H1041.73ZM1041.73 36.3999V35.3999H1033.83V36.3999V37.3999H1041.73V36.3999ZM1135.13 36.3999H1134.13V37.3999H1135.13V36.3999ZM1135.13 1.3999V0.3999H1134.13V1.3999H1135.13ZM1142.98 1.3999L1143.83 0.88261L1143.54 0.3999H1142.98V1.3999ZM1156.58 23.8999L1155.72 24.4172L1157.58 27.4875V23.8999H1156.58ZM1156.58 1.3999V0.3999H1155.58V1.3999H1156.58ZM1163.93 1.3999H1164.93V0.3999H1163.93V1.3999ZM1163.93 36.3999V37.3999H1164.93V36.3999H1163.93ZM1156.08 36.3999L1155.22 36.9172L1155.51 37.3999H1156.08V36.3999ZM1142.48 13.8999L1143.33 13.3826L1141.48 10.3123V13.8999H1142.48ZM1142.48 36.3999V37.3999H1143.48V36.3999H1142.48ZM1135.13 36.3999H1136.13V1.3999H1135.13H1134.13V36.3999H1135.13ZM1135.13 1.3999V2.3999H1142.98V1.3999V0.3999H1135.13V1.3999ZM1142.98 1.3999L1142.12 1.91719L1155.72 24.4172L1156.58 23.8999L1157.43 23.3826L1143.83 0.88261L1142.98 1.3999ZM1156.58 23.8999H1157.58V1.3999H1156.58H1155.58V23.8999H1156.58ZM1156.58 1.3999V2.3999H1163.93V1.3999V0.3999H1156.58V1.3999ZM1163.93 1.3999H1162.93V36.3999H1163.93H1164.93V1.3999H1163.93ZM1163.93 36.3999V35.3999H1156.08V36.3999V37.3999H1163.93V36.3999ZM1156.08 36.3999L1156.93 35.8826L1143.33 13.3826L1142.48 13.8999L1141.62 14.4172L1155.22 36.9172L1156.08 36.3999ZM1142.48 13.8999H1141.48V36.3999H1142.48H1143.48V13.8999H1142.48ZM1142.48 36.3999V35.3999H1135.13V36.3999V37.3999H1142.48V36.3999ZM1173.48 1.3999V0.3999H1172.48V1.3999H1173.48ZM1180.83 1.3999H1181.83V0.3999H1180.83V1.3999ZM1194.23 1.3999V0.3999H1193.23V1.3999H1194.23ZM1201.58 1.3999H1202.58V0.3999H1201.58V1.3999ZM1187.53 36.7999V35.7999C1183.55 35.7999 1180.31 34.7333 1178.07 32.7134C1175.84 30.7081 1174.48 27.6509 1174.48 23.3999H1173.48H1172.48C1172.48 28.0989 1174 31.7417 1176.73 34.1989C1179.44 36.6415 1183.22 37.7999 1187.53 37.7999V36.7999ZM1173.48 23.3999H1174.48V1.3999H1173.48H1172.48V23.3999H1173.48ZM1173.48 1.3999V2.3999H1180.83V1.3999V0.3999H1173.48V1.3999ZM1180.83 1.3999H1179.83V23.3499H1180.83H1181.83V1.3999H1180.83ZM1180.83 23.3499H1179.83C1179.83 25.8369 1180.61 27.7826 1182.05 29.0956C1183.48 30.3939 1185.42 30.9499 1187.53 30.9499V29.9499V28.9499C1185.75 28.9499 1184.34 28.4809 1183.4 27.6167C1182.46 26.7672 1181.83 25.4129 1181.83 23.3499H1180.83ZM1187.53 29.9499V30.9499C1189.65 30.9499 1191.59 30.3939 1193.02 29.0956C1194.46 27.7826 1195.23 25.8369 1195.23 23.3499H1194.23H1193.23C1193.23 25.4129 1192.61 26.7672 1191.67 27.6167C1190.73 28.4809 1189.32 28.9499 1187.53 28.9499V29.9499ZM1194.23 23.3499H1195.23V1.3999H1194.23H1193.23V23.3499H1194.23ZM1194.23 1.3999V2.3999H1201.58V1.3999V0.3999H1194.23V1.3999ZM1201.58 1.3999H1200.58V23.3999H1201.58H1202.58V1.3999H1201.58ZM1201.58 23.3999H1200.58C1200.58 27.6509 1199.23 30.7081 1197 32.7134C1194.76 34.7333 1191.52 35.7999 1187.53 35.7999V36.7999V37.7999C1191.85 37.7999 1195.63 36.6415 1198.34 34.1989C1201.07 31.7417 1202.58 28.0989 1202.58 23.3999H1201.58ZM1240.41 36.3999V37.3999H1242.15L1241.27 35.8962L1240.41 36.3999ZM1231.16 36.3999L1230.28 36.885L1230.57 37.3999H1231.16V36.3999ZM1223.56 22.6999L1224.43 22.2148L1224.15 21.6999H1223.56V22.6999ZM1219.16 22.6999V21.6999H1218.16V22.6999H1219.16ZM1219.16 36.3999V37.3999H1220.16V36.3999H1219.16ZM1211.26 36.3999L1210.26 36.4028L1210.26 37.3999H1211.26V36.3999ZM1211.16 1.3999V0.3999H1210.16L1210.16 1.40276L1211.16 1.3999ZM1231.46 21.0499L1230.96 20.1842L1230.09 20.6865L1230.59 21.5536L1231.46 21.0499ZM1219.16 8.1499V7.1499H1218.16V8.1499H1219.16ZM1219.16 15.9499H1218.16V16.9499H1219.16V15.9499ZM1240.41 36.3999V35.3999H1231.16V36.3999V37.3999H1240.41V36.3999ZM1231.16 36.3999L1232.03 35.9148L1224.43 22.2148L1223.56 22.6999L1222.68 23.185L1230.28 36.885L1231.16 36.3999ZM1223.56 22.6999V21.6999H1219.16V22.6999V23.6999H1223.56V22.6999ZM1219.16 22.6999H1218.16V36.3999H1219.16H1220.16V22.6999H1219.16ZM1219.16 36.3999V35.3999H1211.26V36.3999V37.3999H1219.16V36.3999ZM1211.26 36.3999L1212.26 36.397L1212.16 1.39704L1211.16 1.3999L1210.16 1.40276L1210.26 36.4028L1211.26 36.3999ZM1211.16 1.3999V2.3999H1225.11V1.3999V0.3999H1211.16V1.3999ZM1225.11 1.3999V2.3999C1228.36 2.3999 1230.95 3.3858 1232.71 5.03698C1234.47 6.68184 1235.51 9.06755 1235.51 12.0499H1236.51H1237.51C1237.51 8.58225 1236.29 5.64296 1234.08 3.57532C1231.87 1.514 1228.76 0.3999 1225.11 0.3999V1.3999ZM1236.51 12.0499H1235.51C1235.51 15.5144 1233.83 18.5234 1230.96 20.1842L1231.46 21.0499L1231.96 21.9156C1235.49 19.8764 1237.51 16.1855 1237.51 12.0499H1236.51ZM1231.46 21.0499L1230.59 21.5536L1239.54 36.9036L1240.41 36.3999L1241.27 35.8962L1232.32 20.5462L1231.46 21.0499ZM1219.16 8.1499H1218.16V15.9499H1219.16H1220.16V8.1499H1219.16ZM1219.16 15.9499V16.9499H1223.76V15.9499V14.9499H1219.16V15.9499ZM1223.76 15.9499V16.9499C1225.45 16.9499 1226.91 16.556 1227.98 15.6955C1229.07 14.8112 1229.61 13.5332 1229.61 12.0499H1228.61H1227.61C1227.61 13.0166 1227.28 13.6886 1226.72 14.1418C1226.13 14.6188 1225.17 14.9499 1223.76 14.9499V15.9499ZM1228.61 12.0499H1229.61C1229.61 10.5666 1229.07 9.28857 1227.98 8.40432C1226.91 7.54379 1225.45 7.1499 1223.76 7.1499V8.1499V9.1499C1225.17 9.1499 1226.13 9.48102 1226.72 9.95798C1227.28 10.4112 1227.61 11.0832 1227.61 12.0499H1228.61ZM1223.76 8.1499V7.1499H1219.16V8.1499V9.1499H1223.76V8.1499ZM1252.43 36.3999H1251.43V37.3999H1252.43V36.3999ZM1252.43 8.1499H1253.43V7.1499H1252.43V8.1499ZM1242.13 8.1499H1241.13V9.1499H1242.13V8.1499ZM1242.13 1.3999V0.3999H1241.13V1.3999H1242.13ZM1270.58 1.3999H1271.58V0.3999H1270.58V1.3999ZM1270.58 8.1499V9.1499H1271.58V8.1499H1270.58ZM1260.33 8.1499V7.1499H1259.33V8.1499H1260.33ZM1260.33 36.3999V37.3999H1261.33V36.3999H1260.33ZM1252.43 36.3999H1253.43V8.1499H1252.43H1251.43V36.3999H1252.43ZM1252.43 8.1499V7.1499H1242.13V8.1499V9.1499H1252.43V8.1499ZM1242.13 8.1499H1243.13V1.3999H1242.13H1241.13V8.1499H1242.13ZM1242.13 1.3999V2.3999H1270.58V1.3999V0.3999H1242.13V1.3999ZM1270.58 1.3999H1269.58V8.1499H1270.58H1271.58V1.3999H1270.58ZM1270.58 8.1499V7.1499H1260.33V8.1499V9.1499H1270.58V8.1499ZM1260.33 8.1499H1259.33V36.3999H1260.33H1261.33V8.1499H1260.33ZM1260.33 36.3999V35.3999H1252.43V36.3999V37.3999H1260.33V36.3999ZM1277.67 1.3999V0.3999H1276.67V1.3999H1277.67ZM1285.02 1.3999H1286.02V0.3999H1285.02V1.3999ZM1298.42 1.3999V0.3999H1297.42V1.3999H1298.42ZM1305.77 1.3999H1306.77V0.3999H1305.77V1.3999ZM1291.72 36.7999V35.7999C1287.74 35.7999 1284.49 34.7333 1282.25 32.7134C1280.03 30.7081 1278.67 27.6509 1278.67 23.3999H1277.67H1276.67C1276.67 28.0989 1278.19 31.7417 1280.91 34.1989C1283.62 36.6415 1287.4 37.7999 1291.72 37.7999V36.7999ZM1277.67 23.3999H1278.67V1.3999H1277.67H1276.67V23.3999H1277.67ZM1277.67 1.3999V2.3999H1285.02V1.3999V0.3999H1277.67V1.3999ZM1285.02 1.3999H1284.02V23.3499H1285.02H1286.02V1.3999H1285.02ZM1285.02 23.3499H1284.02C1284.02 25.8369 1284.79 27.7826 1286.23 29.0956C1287.66 30.3939 1289.6 30.9499 1291.72 30.9499V29.9499V28.9499C1289.93 28.9499 1288.53 28.4809 1287.58 27.6167C1286.65 26.7672 1286.02 25.4129 1286.02 23.3499H1285.02ZM1291.72 29.9499V30.9499C1293.83 30.9499 1295.78 30.3939 1297.2 29.0956C1298.65 27.7826 1299.42 25.8369 1299.42 23.3499H1298.42H1297.42C1297.42 25.4129 1296.79 26.7672 1295.86 27.6167C1294.91 28.4809 1293.5 28.9499 1291.72 28.9499V29.9499ZM1298.42 23.3499H1299.42V1.3999H1298.42H1297.42V23.3499H1298.42ZM1298.42 1.3999V2.3999H1305.77V1.3999V0.3999H1298.42V1.3999ZM1305.77 1.3999H1304.77V23.3999H1305.77H1306.77V1.3999H1305.77ZM1305.77 23.3999H1304.77C1304.77 27.6509 1303.41 30.7081 1301.19 32.7134C1298.95 34.7333 1295.7 35.7999 1291.72 35.7999V36.7999V37.7999C1296.04 37.7999 1299.82 36.6415 1302.53 34.1989C1305.25 31.7417 1306.77 28.0989 1306.77 23.3999H1305.77ZM1344.59 36.3999V37.3999H1346.33L1345.46 35.8962L1344.59 36.3999ZM1335.34 36.3999L1334.47 36.885L1334.75 37.3999H1335.34V36.3999ZM1327.74 22.6999L1328.62 22.2148L1328.33 21.6999H1327.74V22.6999ZM1323.34 22.6999V21.6999H1322.34V22.6999H1323.34ZM1323.34 36.3999V37.3999H1324.34V36.3999H1323.34ZM1315.44 36.3999L1314.44 36.4028L1314.45 37.3999H1315.44V36.3999ZM1315.34 1.3999V0.3999H1314.34L1314.34 1.40276L1315.34 1.3999ZM1335.64 21.0499L1335.14 20.1842L1334.27 20.6865L1334.78 21.5536L1335.64 21.0499ZM1323.34 8.1499V7.1499H1322.34V8.1499H1323.34ZM1323.34 15.9499H1322.34V16.9499H1323.34V15.9499ZM1344.59 36.3999V35.3999H1335.34V36.3999V37.3999H1344.59V36.3999ZM1335.34 36.3999L1336.22 35.9148L1328.62 22.2148L1327.74 22.6999L1326.87 23.185L1334.47 36.885L1335.34 36.3999ZM1327.74 22.6999V21.6999H1323.34V22.6999V23.6999H1327.74V22.6999ZM1323.34 22.6999H1322.34V36.3999H1323.34H1324.34V22.6999H1323.34ZM1323.34 36.3999V35.3999H1315.44V36.3999V37.3999H1323.34V36.3999ZM1315.44 36.3999L1316.44 36.397L1316.34 1.39704L1315.34 1.3999L1314.34 1.40276L1314.44 36.4028L1315.44 36.3999ZM1315.34 1.3999V2.3999H1329.29V1.3999V0.3999H1315.34V1.3999ZM1329.29 1.3999V2.3999C1332.54 2.3999 1335.13 3.3858 1336.9 5.03698C1338.66 6.68184 1339.69 9.06755 1339.69 12.0499H1340.69H1341.69C1341.69 8.58225 1340.48 5.64296 1338.26 3.57532C1336.06 1.514 1332.94 0.3999 1329.29 0.3999V1.3999ZM1340.69 12.0499H1339.69C1339.69 15.5144 1338.01 18.5234 1335.14 20.1842L1335.64 21.0499L1336.14 21.9156C1339.67 19.8764 1341.69 16.1855 1341.69 12.0499H1340.69ZM1335.64 21.0499L1334.78 21.5536L1343.73 36.9036L1344.59 36.3999L1345.46 35.8962L1336.51 20.5462L1335.64 21.0499ZM1323.34 8.1499H1322.34V15.9499H1323.34H1324.34V8.1499H1323.34ZM1323.34 15.9499V16.9499H1327.94V15.9499V14.9499H1323.34V15.9499ZM1327.94 15.9499V16.9499C1329.63 16.9499 1331.1 16.556 1332.16 15.6955C1333.25 14.8112 1333.79 13.5332 1333.79 12.0499H1332.79H1331.79C1331.79 13.0166 1331.46 13.6886 1330.9 14.1418C1330.31 14.6188 1329.35 14.9499 1327.94 14.9499V15.9499ZM1332.79 12.0499H1333.79C1333.79 10.5666 1333.25 9.28857 1332.16 8.40432C1331.1 7.54379 1329.63 7.1499 1327.94 7.1499V8.1499V9.1499C1329.35 9.1499 1330.31 9.48102 1330.9 9.95798C1331.46 10.4112 1331.79 11.0832 1331.79 12.0499H1332.79ZM1327.94 8.1499V7.1499H1323.34V8.1499V9.1499H1327.94V8.1499ZM1351.55 36.3999H1350.55V37.3999H1351.55V36.3999ZM1351.55 1.3999V0.3999H1350.55V1.3999H1351.55ZM1375.6 1.3999H1376.6V0.3999H1375.6V1.3999ZM1375.6 8.1499V9.1499H1376.6V8.1499H1375.6ZM1359.45 8.1499V7.1499H1358.45V8.1499H1359.45ZM1359.45 14.5499H1358.45V15.5499H1359.45V14.5499ZM1372.25 14.5499H1373.25V13.5499H1372.25V14.5499ZM1372.25 21.3499V22.3499H1373.25V21.3499H1372.25ZM1359.45 21.3499V20.3499H1358.45V21.3499H1359.45ZM1359.45 29.5999H1358.45V30.5999H1359.45V29.5999ZM1376.15 29.5999H1377.15V28.5999H1376.15V29.5999ZM1376.15 36.3999V37.3999H1377.15V36.3999H1376.15ZM1351.55 36.3999H1352.55V1.3999H1351.55H1350.55V36.3999H1351.55ZM1351.55 1.3999V2.3999H1375.6V1.3999V0.3999H1351.55V1.3999ZM1375.6 1.3999H1374.6V8.1499H1375.6H1376.6V1.3999H1375.6ZM1375.6 8.1499V7.1499H1359.45V8.1499V9.1499H1375.6V8.1499ZM1359.45 8.1499H1358.45V14.5499H1359.45H1360.45V8.1499H1359.45ZM1359.45 14.5499V15.5499H1372.25V14.5499V13.5499H1359.45V14.5499ZM1372.25 14.5499H1371.25V21.3499H1372.25H1373.25V14.5499H1372.25ZM1372.25 21.3499V20.3499H1359.45V21.3499V22.3499H1372.25V21.3499ZM1359.45 21.3499H1358.45V29.5999H1359.45H1360.45V21.3499H1359.45ZM1359.45 29.5999V30.5999H1376.15V29.5999V28.5999H1359.45V29.5999ZM1376.15 29.5999H1375.15V36.3999H1376.15H1377.15V29.5999H1376.15ZM1376.15 36.3999V35.3999H1351.55V36.3999V37.3999H1376.15V36.3999ZM1460.21 36.3999H1459.21V37.3999H1460.21V36.3999ZM1460.21 1.3999V0.3999H1459.21V1.3999H1460.21ZM1467.96 29.5999H1466.96V30.5999H1467.96V29.5999ZM1467.96 8.1499V7.1499H1466.96V8.1499H1467.96ZM1460.21 36.3999H1461.21V1.3999H1460.21H1459.21V36.3999H1460.21ZM1460.21 1.3999V2.3999H1472.16V1.3999V0.3999H1460.21V1.3999ZM1472.16 1.3999V2.3999C1476.78 2.3999 1481.07 3.72376 1484.18 6.40755C1487.28 9.07191 1489.31 13.1577 1489.31 18.8999H1490.31H1491.31C1491.31 12.6421 1489.07 7.9779 1485.49 4.89225C1481.93 1.82604 1477.14 0.3999 1472.16 0.3999V1.3999ZM1490.31 18.8999H1489.31C1489.31 24.6421 1487.28 28.7279 1484.18 31.3923C1481.07 34.076 1476.78 35.3999 1472.16 35.3999V36.3999V37.3999C1477.14 37.3999 1481.93 35.9738 1485.49 32.9076C1489.07 29.8219 1491.31 25.1577 1491.31 18.8999H1490.31ZM1472.16 36.3999V35.3999H1460.21V36.3999V37.3999H1472.16V36.3999ZM1467.96 29.5999V30.5999H1471.31V29.5999V28.5999H1467.96V29.5999ZM1471.31 29.5999V30.5999C1474.27 30.5999 1477.29 29.9221 1479.58 28.065C1481.92 26.1776 1483.36 23.1913 1483.36 18.8999H1482.36H1481.36C1481.36 22.7085 1480.1 25.0722 1478.33 26.5098C1476.51 27.9777 1474 28.5999 1471.31 28.5999V29.5999ZM1482.36 18.8999H1483.36C1483.36 14.6088 1481.92 11.6117 1479.59 9.71208C1477.29 7.84186 1474.27 7.1499 1471.31 7.1499V8.1499V9.1499C1474 9.1499 1476.51 9.78294 1478.32 11.2627C1480.1 12.7131 1481.36 15.091 1481.36 18.8999H1482.36ZM1471.31 8.1499V7.1499H1467.96V8.1499V9.1499H1471.31V8.1499ZM1467.96 8.1499H1466.96V29.5999H1467.96H1468.96V8.1499H1467.96ZM1498.32 36.3999H1497.32V37.3999H1498.32V36.3999ZM1498.32 1.3999V0.3999H1497.32V1.3999H1498.32ZM1522.37 1.3999H1523.37V0.3999H1522.37V1.3999ZM1522.37 8.1499V9.1499H1523.37V8.1499H1522.37ZM1506.22 8.1499V7.1499H1505.22V8.1499H1506.22ZM1506.22 14.5499H1505.22V15.5499H1506.22V14.5499ZM1519.02 14.5499H1520.02V13.5499H1519.02V14.5499ZM1519.02 21.3499V22.3499H1520.02V21.3499H1519.02ZM1506.22 21.3499V20.3499H1505.22V21.3499H1506.22ZM1506.22 29.5999H1505.22V30.5999H1506.22V29.5999ZM1522.92 29.5999H1523.92V28.5999H1522.92V29.5999ZM1522.92 36.3999V37.3999H1523.92V36.3999H1522.92ZM1498.32 36.3999H1499.32V1.3999H1498.32H1497.32V36.3999H1498.32ZM1498.32 1.3999V2.3999H1522.37V1.3999V0.3999H1498.32V1.3999ZM1522.37 1.3999H1521.37V8.1499H1522.37H1523.37V1.3999H1522.37ZM1522.37 8.1499V7.1499H1506.22V8.1499V9.1499H1522.37V8.1499ZM1506.22 8.1499H1505.22V14.5499H1506.22H1507.22V8.1499H1506.22ZM1506.22 14.5499V15.5499H1519.02V14.5499V13.5499H1506.22V14.5499ZM1519.02 14.5499H1518.02V21.3499H1519.02H1520.02V14.5499H1519.02ZM1519.02 21.3499V20.3499H1506.22V21.3499V22.3499H1519.02V21.3499ZM1506.22 21.3499H1505.22V29.5999H1506.22H1507.22V21.3499H1506.22ZM1506.22 29.5999V30.5999H1522.92V29.5999V28.5999H1506.22V29.5999ZM1522.92 29.5999H1521.92V36.3999H1522.92H1523.92V29.5999H1522.92ZM1522.92 36.3999V35.3999H1498.32V36.3999V37.3999H1522.92V36.3999ZM1530.92 36.3999H1529.92V37.3999H1530.92V36.3999ZM1530.92 1.3999V0.3999H1529.92V1.3999H1530.92ZM1538.82 1.3999H1539.82V0.3999H1538.82V1.3999ZM1538.82 29.5999H1537.82V30.5999H1538.82V29.5999ZM1554.52 29.5999H1555.52V28.5999H1554.52V29.5999ZM1554.52 36.3999V37.3999H1555.52V36.3999H1554.52ZM1530.92 36.3999H1531.92V1.3999H1530.92H1529.92V36.3999H1530.92ZM1530.92 1.3999V2.3999H1538.82V1.3999V0.3999H1530.92V1.3999ZM1538.82 1.3999H1537.82V29.5999H1538.82H1539.82V1.3999H1538.82ZM1538.82 29.5999V30.5999H1554.52V29.5999V28.5999H1538.82V29.5999ZM1554.52 29.5999H1553.52V36.3999H1554.52H1555.52V29.5999H1554.52ZM1554.52 36.3999V35.3999H1530.92V36.3999V37.3999H1554.52V36.3999ZM1561.47 36.3999H1560.47V37.3999H1561.47V36.3999ZM1561.47 1.3999V0.3999H1560.47V1.3999H1561.47ZM1569.37 1.3999H1570.37V0.3999H1569.37V1.3999ZM1569.37 36.3999V37.3999H1570.37V36.3999H1569.37ZM1561.47 36.3999H1562.47V1.3999H1561.47H1560.47V36.3999H1561.47ZM1561.47 1.3999V2.3999H1569.37V1.3999V0.3999H1561.47V1.3999ZM1569.37 1.3999H1568.37V36.3999H1569.37H1570.37V1.3999H1569.37ZM1569.37 36.3999V35.3999H1561.47V36.3999V37.3999H1569.37V36.3999ZM1588.62 36.3999L1587.68 36.7374L1587.92 37.3999H1588.62V36.3999ZM1576.07 1.3999V0.3999H1574.65L1575.13 1.73743L1576.07 1.3999ZM1584.12 1.3999L1585.08 1.09208L1584.85 0.3999H1584.12V1.3999ZM1592.37 26.8999L1591.42 27.2077L1592.37 30.1397L1593.33 27.2094L1592.37 26.8999ZM1600.67 1.3999V0.3999H1599.95L1599.72 1.09039L1600.67 1.3999ZM1608.72 1.3999L1609.67 1.73743L1610.15 0.3999H1608.72V1.3999ZM1596.17 36.3999V37.3999H1596.88L1597.12 36.7374L1596.17 36.3999ZM1588.62 36.3999L1589.57 36.0624L1577.02 1.06237L1576.07 1.3999L1575.13 1.73743L1587.68 36.7374L1588.62 36.3999ZM1576.07 1.3999V2.3999H1584.12V1.3999V0.3999H1576.07V1.3999ZM1584.12 1.3999L1583.17 1.70772L1591.42 27.2077L1592.37 26.8999L1593.33 26.5921L1585.08 1.09208L1584.12 1.3999ZM1592.37 26.8999L1593.33 27.2094L1601.63 1.70941L1600.67 1.3999L1599.72 1.09039L1591.42 26.5904L1592.37 26.8999ZM1600.67 1.3999V2.3999H1608.72V1.3999V0.3999H1600.67V1.3999ZM1608.72 1.3999L1607.78 1.06237L1595.23 36.0624L1596.17 36.3999L1597.12 36.7374L1609.67 1.73743L1608.72 1.3999ZM1596.17 36.3999V35.3999H1588.62V36.3999V37.3999H1596.17V36.3999ZM1615.38 36.3999H1614.38V37.3999H1615.38V36.3999ZM1615.38 1.3999V0.3999H1614.38V1.3999H1615.38ZM1639.43 1.3999H1640.43V0.3999H1639.43V1.3999ZM1639.43 8.1499V9.1499H1640.43V8.1499H1639.43ZM1623.28 8.1499V7.1499H1622.28V8.1499H1623.28ZM1623.28 14.5499H1622.28V15.5499H1623.28V14.5499ZM1636.08 14.5499H1637.08V13.5499H1636.08V14.5499ZM1636.08 21.3499V22.3499H1637.08V21.3499H1636.08ZM1623.28 21.3499V20.3499H1622.28V21.3499H1623.28ZM1623.28 29.5999H1622.28V30.5999H1623.28V29.5999ZM1639.98 29.5999H1640.98V28.5999H1639.98V29.5999ZM1639.98 36.3999V37.3999H1640.98V36.3999H1639.98ZM1615.38 36.3999H1616.38V1.3999H1615.38H1614.38V36.3999H1615.38ZM1615.38 1.3999V2.3999H1639.43V1.3999V0.3999H1615.38V1.3999ZM1639.43 1.3999H1638.43V8.1499H1639.43H1640.43V1.3999H1639.43ZM1639.43 8.1499V7.1499H1623.28V8.1499V9.1499H1639.43V8.1499ZM1623.28 8.1499H1622.28V14.5499H1623.28H1624.28V8.1499H1623.28ZM1623.28 14.5499V15.5499H1636.08V14.5499V13.5499H1623.28V14.5499ZM1636.08 14.5499H1635.08V21.3499H1636.08H1637.08V14.5499H1636.08ZM1636.08 21.3499V20.3499H1623.28V21.3499V22.3499H1636.08V21.3499ZM1623.28 21.3499H1622.28V29.5999H1623.28H1624.28V21.3499H1623.28ZM1623.28 29.5999V30.5999H1639.98V29.5999V28.5999H1623.28V29.5999ZM1639.98 29.5999H1638.98V36.3999H1639.98H1640.98V29.5999H1639.98ZM1639.98 36.3999V35.3999H1615.38V36.3999V37.3999H1639.98V36.3999ZM1677.22 36.3999V37.3999H1678.96L1678.09 35.8962L1677.22 36.3999ZM1667.97 36.3999L1667.1 36.885L1667.38 37.3999H1667.97V36.3999ZM1660.37 22.6999L1661.25 22.2148L1660.96 21.6999H1660.37V22.6999ZM1655.97 22.6999V21.6999H1654.97V22.6999H1655.97ZM1655.97 36.3999V37.3999H1656.97V36.3999H1655.97ZM1648.07 36.3999L1647.07 36.4028L1647.08 37.3999H1648.07V36.3999ZM1647.97 1.3999V0.3999H1646.97L1646.97 1.40276L1647.97 1.3999ZM1668.27 21.0499L1667.77 20.1842L1666.9 20.6865L1667.41 21.5536L1668.27 21.0499ZM1655.97 8.1499V7.1499H1654.97V8.1499H1655.97ZM1655.97 15.9499H1654.97V16.9499H1655.97V15.9499ZM1677.22 36.3999V35.3999H1667.97V36.3999V37.3999H1677.22V36.3999ZM1667.97 36.3999L1668.85 35.9148L1661.25 22.2148L1660.37 22.6999L1659.5 23.185L1667.1 36.885L1667.97 36.3999ZM1660.37 22.6999V21.6999H1655.97V22.6999V23.6999H1660.37V22.6999ZM1655.97 22.6999H1654.97V36.3999H1655.97H1656.97V22.6999H1655.97ZM1655.97 36.3999V35.3999H1648.07V36.3999V37.3999H1655.97V36.3999ZM1648.07 36.3999L1649.07 36.397L1648.97 1.39704L1647.97 1.3999L1646.97 1.40276L1647.07 36.4028L1648.07 36.3999ZM1647.97 1.3999V2.3999H1661.92V1.3999V0.3999H1647.97V1.3999ZM1661.92 1.3999V2.3999C1665.17 2.3999 1667.76 3.3858 1669.53 5.03698C1671.29 6.68184 1672.32 9.06755 1672.32 12.0499H1673.32H1674.32C1674.32 8.58225 1673.11 5.64296 1670.89 3.57532C1668.69 1.514 1665.58 0.3999 1661.92 0.3999V1.3999ZM1673.32 12.0499H1672.32C1672.32 15.5144 1670.65 18.5234 1667.77 20.1842L1668.27 21.0499L1668.77 21.9156C1672.3 19.8764 1674.32 16.1855 1674.32 12.0499H1673.32ZM1668.27 21.0499L1667.41 21.5536L1676.36 36.9036L1677.22 36.3999L1678.09 35.8962L1669.14 20.5462L1668.27 21.0499ZM1655.97 8.1499H1654.97V15.9499H1655.97H1656.97V8.1499H1655.97ZM1655.97 15.9499V16.9499H1660.57V15.9499V14.9499H1655.97V15.9499ZM1660.57 15.9499V16.9499C1662.26 16.9499 1663.73 16.556 1664.79 15.6955C1665.88 14.8112 1666.42 13.5332 1666.42 12.0499H1665.42H1664.42C1664.42 13.0166 1664.09 13.6886 1663.53 14.1418C1662.94 14.6188 1661.98 14.9499 1660.57 14.9499V15.9499ZM1665.42 12.0499H1666.42C1666.42 10.5666 1665.88 9.28857 1664.79 8.40432C1663.73 7.54379 1662.26 7.1499 1660.57 7.1499V8.1499V9.1499C1661.98 9.1499 1662.94 9.48102 1663.53 9.95798C1664.09 10.4112 1664.42 11.0832 1664.42 12.0499H1665.42ZM1660.57 8.1499V7.1499H1655.97V8.1499V9.1499H1660.57V8.1499Z" fill="#99B81B" mask="url(#path-1-outside-1_128_513)"/>
</svg>
